<?xml version="1.0" encoding="UTF-8" standalone="no"?>
<svg
   width="2048mm"
   height="1024mm"
   viewBox="0 0 2048 1024"
   version="1.1"
   id="svg8"
   inkscape:version="1.2.2 (732a01da63, 2022-12-09)"
   sodipodi:docname="FOB_Poseidon.svg"
   inkscape:export-filename="..\..\..\..\..\..\..\..\..\..\..\..\..\..\Users\cw\Desktop\FOB_Dionysos.jpg"
   inkscape:export-xdpi="25.4"
   inkscape:export-ydpi="25.4"
   xmlns:inkscape="http://www.inkscape.org/namespaces/inkscape"
   xmlns:sodipodi="http://sodipodi.sourceforge.net/DTD/sodipodi-0.dtd"
   xmlns:xlink="http://www.w3.org/1999/xlink"
   xmlns="http://www.w3.org/2000/svg"
   xmlns:svg="http://www.w3.org/2000/svg"
   xmlns:rdf="http://www.w3.org/1999/02/22-rdf-syntax-ns#"
   xmlns:cc="http://creativecommons.org/ns#"
   xmlns:dc="http://purl.org/dc/elements/1.1/">
  <defs
     id="defs2" />
  <sodipodi:namedview
     id="base"
     pagecolor="#012169"
     bordercolor="#666666"
     borderopacity="1.0"
     inkscape:pageopacity="1"
     inkscape:pageshadow="2"
     inkscape:zoom="0.16256039"
     inkscape:cx="2322.2139"
     inkscape:cy="2396.0326"
     inkscape:document-units="px"
     inkscape:current-layer="layer1"
     inkscape:document-rotation="0"
     showgrid="false"
     inkscape:window-width="2560"
     inkscape:window-height="1361"
     inkscape:window-x="2391"
     inkscape:window-y="-9"
     inkscape:window-maximized="1"
     inkscape:showpageshadow="2"
     inkscape:pagecheckerboard="0"
     inkscape:deskcolor="#012169" />
  <metadata
     id="metadata5">
    <rdf:RDF>
      <cc:Work
         rdf:about="">
        <dc:format>image/svg+xml</dc:format>
        <dc:type
           rdf:resource="http://purl.org/dc/dcmitype/StillImage" />
        <dc:title />
      </cc:Work>
    </rdf:RDF>
  </metadata>
  <g
     inkscape:label="Ebene 1"
     inkscape:groupmode="layer"
     id="layer1">
    <g
       style="fill:#012169;fill-opacity:1"
       id="g127"
       transform="matrix(0.93749997,0,0,0.93749997,700.70047,289.11183)">
      <path
         fill="#012169"
         d="M 0,0 H 960 V 720 H 0"
         id="path100"
         style="fill:#012169;fill-opacity:1" />
      <use
         transform="rotate(180,135.6,101.47)"
         xlink:href="#d"
         id="use102"
         x="0"
         y="0"
         width="100%"
         height="100%"
         style="fill:#012169;fill-opacity:1" />
      <g
         id="d"
         transform="translate(427.64,-170.45)"
         style="fill:#012169;fill-opacity:1">
        <use
           transform="rotate(90,-291.86,271.68)"
           xlink:href="#c"
           id="use104"
           x="0"
           y="0"
           width="100%"
           height="100%"
           style="fill:#012169;fill-opacity:1" />
        <path
           d="m -407.19,273.06 v -2.2754 h 57.573 v 2.2754 z m 114.01,56.43 h 2.2754 v 23.707 h -2.2754 z"
           id="path106"
           style="fill:#012169;fill-opacity:1" />
        <path
           id="c"
           d="m -342.74,271.84 h 50.641 l -9.1546,9.1546 7.9904,35.851 c 0,0.39688 -0.37041,0.39688 -0.37041,0 l -10.663,-33.549 z m 12.2,6.48 c 2.6458,16.034 15.214,28.998 31.591,32.041 l -1.1642,-3.0427 c -13.679,-3.0692 -24.739,-14.129 -27.781,-28.231 z"
           style="fill:#012169;fill-opacity:1" />
      </g>
      <path
         d="M 129.06,62.5 C 112.682,65.1723 99.744,78.137 97.098,94.144 l 3.0427,-1.1377 c 3.0427,-13.732 14.076,-24.791 27.781,-27.464 z"
         id="path110"
         style="fill:#012169;fill-opacity:1" />
    </g>
    <g
       style="fill:#ffffff"
       id="g981"
       transform="matrix(2.1957008,0,0,2.1957008,455.58165,70.940845)">
      <g
         id="g989"
         transform="matrix(1.9857726,0,0,1.9857726,25.016321,-134.72623)">
        <use
           transform="rotate(180,117.76854,139.0099)"
           xlink:href="#d-9"
           id="use956"
           x="0"
           y="0"
           width="100%"
           height="100%" />
        <g
           id="d-9"
           transform="translate(409.80855,-132.9101)">
          <use
             transform="rotate(90,-291.86,271.68)"
             xlink:href="#c-5"
             id="use958"
             x="0"
             y="0"
             width="100%"
             height="100%" />
          <path
             d="m -407.19,273.06 v -2.2754 h 57.573 v 2.2754 z m 114.01,56.43 h 2.2754 v 23.707 h -2.2754 z"
             id="path960" />
          <path
             id="c-5"
             d="m -342.74,271.84 h 50.641 l -9.1546,9.1546 7.9904,35.851 c 0,0.39688 -0.37041,0.39688 -0.37041,0 l -10.663,-33.549 z m 12.2,6.48 c 2.6458,16.034 15.214,28.998 31.591,32.041 l -1.1642,-3.0427 c -13.679,-3.0692 -24.739,-14.129 -27.781,-28.231 z" />
        </g>
        <path
           d="m 111.22855,100.0399 c -16.378001,2.6723 -29.316001,15.637 -31.962001,31.644 l 3.0427,-1.1377 c 3.0427,-13.732 14.076,-24.791 27.781001,-27.464 z"
           id="path964" />
      </g>
    </g>
    <text
       xml:space="preserve"
       style="font-style:normal;font-weight:normal;font-size:200px;line-height:1.25;font-family:sans-serif;fill:#000000;fill-opacity:1;stroke:none;stroke-width:0.264583"
       x="404.46872"
       y="920.59467"
       id="text993"
       inkscape:export-xdpi="25.4"
       inkscape:export-ydpi="25.4"><tspan
         sodipodi:role="line"
         id="tspan991"
         x="404.46872"
         y="920.59467"
         style="font-style:normal;font-variant:normal;font-weight:normal;font-stretch:normal;font-size:200px;font-family:Bahnschrift;-inkscape-font-specification:Bahnschrift;fill:#ffffff;stroke-width:0.264583">FOB Poseidon</tspan></text>
  </g>
</svg>
