<?xml version="1.0" encoding="UTF-8" standalone="no"?>
<svg
   width="2048mm"
   height="1024mm"
   viewBox="0 0 2048 1024"
   version="1.1"
   id="svg8"
   inkscape:version="1.2.2 (732a01da63, 2022-12-09)"
   sodipodi:docname="Instandsetzung_Warnung.svg"
   inkscape:export-filename="Instandsetzung_Warnung.jpg"
   inkscape:export-xdpi="25.4"
   inkscape:export-ydpi="25.4"
   xml:space="preserve"
   xmlns:inkscape="http://www.inkscape.org/namespaces/inkscape"
   xmlns:sodipodi="http://sodipodi.sourceforge.net/DTD/sodipodi-0.dtd"
   xmlns:xlink="http://www.w3.org/1999/xlink"
   xmlns="http://www.w3.org/2000/svg"
   xmlns:svg="http://www.w3.org/2000/svg"
   xmlns:rdf="http://www.w3.org/1999/02/22-rdf-syntax-ns#"
   xmlns:cc="http://creativecommons.org/ns#"
   xmlns:dc="http://purl.org/dc/elements/1.1/"><defs
     id="defs2"><path
       id="a"
       fill-rule="evenodd"
       d="M-310.00075 644.34321c-5.14515-1.889-6.20937.52915-5.54497 6.62943.68724 6.31 2.52859 13.79207 6.49188 17.00054 7.56362 6.12313 10.95393 7.40038 29.11206 7.22192l-.09937-24.90625c-5.01239-.08923-9.75849.61666-16.77323-2.71061-9.04828-4.29184-9.85319-3.27879-13.18637-3.23503zm3.2927 3.25604c.83804 0 1.282.57394 1.282 1.47295v2.42489c.00002.899-.80635.96062-1.6444.96062-.83805.00001-.97969-.3636-.97969-1.26261l.02799-2.1833c.00001-.89902.47605-1.41255 1.3141-1.41255zm5.65992 2.31697c.95913 0 1.84313 1.62655 1.84313 2.59558l-.0604 2.46035c-.00001.96903-.58201 1.448-1.54113 1.448-.95911.00001-1.90353-.29778-1.90353-1.26681l-.0604-2.52074c.00001-.96902.76321-2.71638 1.72233-2.71638zm7.09585 2.74763c1.07869 0 1.49827.85149 1.49827 1.90625l.18119 2.82904c-.00001 1.05475-.90276 1.48346-1.98145 1.48346-1.07869-.00001-1.83339-.91189-1.83339-1.96665l.0604-2.34585c.00001-1.05476.99629-1.90625 2.07498-1.90625zm8.16549.51261c1.31629 0 3.77394 1.06851 3.77394 2.3104l-.00001 3.53728c-.00001 1.24188-1.24968 1.94801-2.56596 1.94801-1.31625 0-3.68041-.28333-3.68041-1.52522l.1812-3.77888c.00001-1.24188.97497-2.49159 2.29124-2.49159zm-23.85936 1.89574c.83804 0 1.43008.122 1.43008 1.02101l-.0604 3.03369c.00002.899-.71282.47262-1.55087.47262-.83805.00001-1.16121-.066-1.16121-.96501l-.0604-2.78289c.00001-.89902.56475-.77942 1.4028-.77942zm4.74616 3.96455c.95913 0 2.47512.47897 2.47512 1.448l-.08841 3.39434c-.00001.96903-1.0652.57441-2.02432.57441-.95911.00001-2.05745-.19538-2.05745-1.16441l.06039-2.92513c.00001-.96902.67555-1.32721 1.63467-1.32721zm7.26535 2.59375c1.07869 0 1.89378.3683 1.89378 1.42306l-.1812 3.58297c-.00001 1.05475-.63389 1.00027-1.71258 1.00027-1.07869-.00001-2.62338.1477-2.62338-.90706l.26-4.40618c.00001-1.05476 1.28469-.69306 2.36338-.69306zm6.65942 2.13944c1.07869 0 2.13538.00591 2.13538 1.06067l-.1208 3.25183c-.00001 1.05475-1.05669 2.0562-2.13538 2.0562-1.07868-.00001-2.10226-1.00144-2.10226-2.0562l.0604-3.07064c.00001-1.05476 1.08398-1.24186 2.16266-1.24186zm7.25756.48976c1.06908 0 2.16266.61186 2.16266 1.76051l-.0604 3.65178c.00001 1.14864-1.03316 2.18329-2.10226 2.18329-1.06911 0-1.92106-1.09504-1.92106-2.24369v-3.95378c.00001-1.14864.85196-1.39811 1.92106-1.39811zm3.67798-64.46381c-3.21225 0-11.9358 14.68979-12.40285 17.31045-1.60612 9.01215-1.76227 11.66671 1.33844 15.16895 3.10071 3.50224 8.38754.44614 11.06441-1.15998v-31.31942zm-45.50685-13.02745c.73614-8.566 12.15747-14.65589 22.48574-13.91975 9.3248.65892 17.16891 5.00201 14.90126 13.29514-2.34226 8.566-8.49907 20.8127-17.84582 20.96885-9.34675.15615-20.27732-11.77824-19.54118-20.34424z" /><path
       id="b"
       fill="none"
       stroke-width="5.31496048"
       d="M-342.46862 584.11419c-2.96082-7.40206-10.76995-14.84641-12.37725-29.60822-1.6073-14.76181 7.78273-39.71731 23.3482-52.27966 10.76039-8.68434 30.0735-17.38426 51.26453-17.42656" /><path
       id="c-9"
       fill="none"
       stroke-linecap="round"
       stroke-width="5.31496048"
       d="M-280.06395 702.20871c-8.50766.15625-21.54318-.83664-31.13094-13.87357-5.51102-7.49359-11.99233-26.10734-16.1429-43.19941-4.04728-16.66671-2.8279-14.09957-8.20183-20.36318-14.53495-16.94131-12.95339-25.03045-6.66202-40.82755 4.19179-10.52523 2.80777-9.33925 1.73691-21.6563-1.29181-14.85844-.15988-19.54142.00931-26.05523" /><path
       id="d-7"
       fill="none"
       stroke-width="5.31496048"
       d="M-327.28172 646.18023s-36.6672-11.4904-51.52741-17.75426c-3.68892-1.55495-4.72544-7.44765-8.99322-4.55353-3.15989 2.14282-1.31348 4.60535-1.4136 9.77811-.10012 5.17276-3.75201 4.45968-3.46444 8.4659.51775 7.16078 6.6806 1.12042 15.74013 2.99586 16.459 3.40722 53.66326 15.7519 53.66326 15.7519l-4.00472-14.68398zm7.50924 24.51402s-37.93726 16.04911-38.74026 16.44643c-7.72102 3.82082-16.12157-.83045-19.41581 1.79861-3.29424 2.62906 1.77076 4.45076 3.65296 8.85616 1.96234 4.59294-2.55561 7.64122 1.79521 9.51559 4.03874 1.73992 6.37915-2.69079 18.32962-7.89779 14.40156-6.27499 39.44634-16.80904 39.44634-16.80904l-5.06806-11.90996z" /><path
       id="e"
       fill="none"
       stroke-linecap="round"
       stroke-linejoin="bevel"
       stroke-width="5.31496048"
       d="M-313.26966 646.12468c.0976 3.12317-2.58323-15.379-8.3979-18.6458-9.12894-5.12882-20.7886-11.80949-18.44622-8.49112" /></defs><sodipodi:namedview
     id="base"
     pagecolor="#012169"
     bordercolor="#666666"
     borderopacity="1.0"
     inkscape:pageopacity="1"
     inkscape:pageshadow="2"
     inkscape:zoom="0.088388348"
     inkscape:cx="-356.38182"
     inkscape:cy="2732.2606"
     inkscape:document-units="px"
     inkscape:current-layer="layer1"
     inkscape:document-rotation="0"
     showgrid="false"
     inkscape:window-width="2560"
     inkscape:window-height="1361"
     inkscape:window-x="2391"
     inkscape:window-y="-9"
     inkscape:window-maximized="1"
     inkscape:showpageshadow="2"
     inkscape:pagecheckerboard="0"
     inkscape:deskcolor="#d8d8d8" /><metadata
     id="metadata5"><rdf:RDF><cc:Work
         rdf:about=""><dc:format>image/svg+xml</dc:format><dc:type
           rdf:resource="http://purl.org/dc/dcmitype/StillImage" /></cc:Work></rdf:RDF></metadata><g
     inkscape:label="Ebene 1"
     inkscape:groupmode="layer"
     id="layer1"><text
       xml:space="preserve"
       style="font-style:normal;font-weight:normal;font-size:224.36px;line-height:1.25;font-family:sans-serif;fill:#000000;fill-opacity:1;stroke:none;stroke-width:0.264583"
       x="255.28214"
       y="265.12018"
       id="text993"
       inkscape:export-xdpi="25.4"
       inkscape:export-ydpi="25.4"><tspan
         sodipodi:role="line"
         id="tspan991"
         x="255.28214"
         y="265.12018"
         style="font-style:normal;font-variant:normal;font-weight:normal;font-stretch:normal;font-size:224.36px;font-family:Bahnschrift;-inkscape-font-specification:Bahnschrift;fill:#ffffff;stroke-width:0.264583">Instandsetzung</tspan></text><g
       id="g3321"><g
         id="g5618"
         transform="translate(43.15115)"><g
           id="g5110"
           transform="matrix(0.3913862,0,0,0.39138597,885.28912,437.14349)"
           style="stroke-width:0.672507"><path
             d="m 574.25,287.5 a 286.75,286.75 0 1 1 -573.49983,0 286.75,286.75 0 1 1 573.49983,0 z"
             style="fill:#ffffff;fill-rule:evenodd;stroke:#000000;stroke-width:0.672507"
             id="path5091" /><g
             transform="translate(643,20)"
             style="fill:#000000;stroke:none;stroke-width:0.672507"
             id="g5097"><path
               d="m -386,130.72 c 0,0 -26.57,2.28 -47.69,20.97 -3.09,2.73 -29.84,31.9 -33.4,38.31 -4.15,8.46 -5.38,27.62 -5.38,27.62 -7.01,-6.29 -11.12,-20.03 -11.12,-20.03 0,0 -6.61,9.9 -9.82,19.16 -2.6,7.53 -8.82,30.19 -1.34,50.37 4.2,14.19 21.84,44.57 21.84,44.57 -8.31,0.59 -26.75,-10.25 -26.75,-10.25 0,0 2.26,17.57 3.57,21.84 2.24,7.33 13.76,18.88 16.5,21.84 7.45,8.1 30.75,16.47 30.75,16.47 0,0 -4,0.12 -11.13,0.47 0,0 10.56,14.71 20.06,15.78 9.6,0.65 28.07,5.16 33.41,6.94 2.1,0.7 13.89,8.27 9.38,18.72 0,0 11.24,-5.38 12.9,-6.69 4.54,-3.56 8.94,-15.08 10.25,-17.81 2.79,-5.83 -0.87,-25.41 -0.87,-25.41 0,0 -2.1,3.25 -5.78,8.47 0,0 3.76,-12.7 5.78,-16.5 2.74,-5.16 15.43,-19.7 18.28,-25.4 2.73,-5.47 7.56,-35.22 7.56,-35.22 l -5.34,-56.16 c -3.8,-24.11 -16.18,-45.47 -21.41,-47.25 l 0.47,23.19 c 0,0 -16.81,-12.66 -20.97,-20.5 0,0 -12.04,-19.51 -6.22,-30.31 0,0 5.54,-16.07 16.47,-23.19 z m -65,122.37 c 4.51,9.27 5.7,12.41 8.31,14.25 4.04,2.86 12.82,4.75 12.82,4.75 -5.47,-5.22 -4.75,-9.97 -4.75,-9.97 4.99,1.19 17.05,7.72 24,12.35 7.84,5.23 20.21,11.6 20.21,21.62 0,3.81 0,20.44 0,20.44 3.33,-2.85 6.73,-11.14 7.35,-13.78 1.9,-8.08 -0.72,-11.99 -0.94,-20.19 9.03,3.09 14.68,15.24 15.44,17.35 3.32,9.26 1.05,26.49 -2.13,29.93 -2.85,3.09 -13.14,18 -14.97,23.75 -6.17,10.93 -3.57,21.62 -8.56,28.75 0,0 -1.35,-9.94 -14.03,-17.81 -8.79,-5.46 -33.99,-13.85 -40.87,-17.81 -15.69,-9.03 -13.54,-28.75 -13.54,-28.75 11.17,8.79 17.43,8.64 28.04,14.47 4.51,-12.12 -1.81,-24.21 -9.72,-30.88 -4.52,-3.8 -10.79,-15.15 -12.85,-25.44 -1.19,-5.94 3.17,-18.25 6.19,-23.03 z"
               id="path5093"
               style="stroke-width:0.672507" /><path
               d="m -206.09,177.22 -141.19,162.25 c -7.55,10.33 -18.8,27.71 -21.5,39.78 0,0 -3.59,19.23 -13.88,23.06 -5.72,0.51 -26.18,11.99 -32.28,19.31 -2.6,3.13 -11.98,19.63 -3.75,30.38 10.81,9.94 12.91,9.13 18.32,10 16.97,2.74 24.67,-5.73 27.46,-9.56 8.7,-11.96 5.73,-31.49 8.35,-37.07 5.61,-9.05 5.55,-6.24 14.09,-12 11.85,-6.77 24.05,-12.68 30.85,-18.78 6.74,-5.43 11.38,-13.06 16.62,-19.31 l 135.66,-159.69 -5.63,-28.09 c -11.4,-0.33 -23.08,-0.24 -33.12,-0.28 z m 3.03,6.9 18.9,0.04 -142.21,163.96 c -8.89,9.87 -18.78,19.26 -28.69,28.29 2.44,-13.44 0.29,-14.99 12.87,-33.04 l 0.13,-0.15 c 0.05,-0.07 0.14,-0.15 0.19,-0.22 z m 24.69,4.75 3.37,16.72 -133.37,155.28 c -3.24,3.77 -5.97,8.26 -10.85,13.32 -1.89,1.96 -16.17,13 -25.31,13.12 2.7,-13.65 14.76,-24.19 23,-34.78 0.02,-0.03 0.04,-0.06 0.06,-0.09 z"
               id="path5095"
               style="stroke-width:0.672507" /></g><path
             d="m 286.99,9.6328 c -68.53,0 -131.27,24.9482 -179.72,66.2502 -1.27,1.084 -2.53,2.175 -3.78,3.281 -0.5,0.444 -1,0.896 -1.5,1.344 -1.07,0.96 -2.129,1.929 -3.185,2.906 -0.282,0.261 -0.563,0.52 -0.844,0.781 -1.249,1.166 -2.491,2.344 -3.719,3.532 -1.407,1.362 -2.808,2.733 -4.187,4.125 -1.353,1.365 -2.707,2.732 -4.031,4.125 -1.375,1.445 -2.719,2.931 -4.063,4.403 -0.154,0.17 -0.315,0.33 -0.469,0.5 -1.161,1.28 -2.299,2.57 -3.437,3.88 -1.242,1.42 -2.443,2.86 -3.656,4.31 -0.047,0.06 -0.109,0.1 -0.157,0.16 -40.495,48.38 -64.9058,110.73 -64.9058,178.78 0,153.65 124.3838,278.34 277.6538,278.34 68.68,0 131.54,-25.07 180.03,-66.53 l 0.03,0.03 c 0.39,-0.33 0.78,-0.67 1.16,-1 0.16,-0.13 0.31,-0.27 0.47,-0.4 0.94,-0.82 1.88,-1.64 2.81,-2.47 0.74,-0.66 1.46,-1.31 2.19,-1.97 0.21,-0.19 0.42,-0.37 0.62,-0.56 0.97,-0.89 1.92,-1.79 2.88,-2.69 0.86,-0.81 1.71,-1.62 2.56,-2.44 0.12,-0.11 0.23,-0.23 0.35,-0.34 1.08,-1.06 2.15,-2.12 3.21,-3.19 0.32,-0.31 0.63,-0.62 0.94,-0.94 1.25,-1.27 2.49,-2.55 3.72,-3.84 0.12,-0.13 0.25,-0.25 0.38,-0.38 1.4,-1.48 2.81,-2.98 4.18,-4.5 1.26,-1.39 2.49,-2.8 3.72,-4.22 0.23,-0.26 0.46,-0.51 0.69,-0.78 1.05,-1.22 2.09,-2.45 3.12,-3.68 40.33,-48.33 64.63,-110.56 64.63,-178.44 C 564.68,134.35 440.27,9.6327 286.99,9.6327 Z m 0,62.0622 c 119.11,0 215.78,96.915 215.78,216.315 0,50.84 -17.51,97.62 -46.84,134.56 L 151.43,119.79 C 188.49,89.727 235.64,71.695 286.99,71.695 Z M 118.37,153.1 422.93,455.95 c -37.12,30.23 -84.42,48.37 -135.94,48.37 -119.1,0 -215.748,-96.91 -215.748,-216.31 0,-51.01 17.637,-97.91 47.128,-134.91 z"
             style="fill:#cc0000;stroke-width:0.672507"
             id="path5099" /></g><g
           id="g5168"
           transform="matrix(0.39221852,0,0,0.39221838,885.04986,727.96559)"
           style="stroke-width:0.674582"><g
             style="fill:none;stroke:#000000;stroke-width:4.04749;stroke-linecap:butt;stroke-linejoin:miter;stroke-miterlimit:4"
             id="g5150"><path
               d="m 573.75,287.53 a 286.25,286.36 0 0 1 -572.5,0 286.25,286.36 0 1 1 572.5,0 z"
               style="fill:#ffffff;stroke-width:0.674582"
               id="path5138" /><path
               d="m 135.88,466.32 c 0,0 45.59,-42.27 69.22,-58.09 11.72,-7.84 7.14,-6.9 21.43,-6.09 21.79,1.24 63.32,9.98 63.32,9.98"
               id="path5140"
               style="stroke-width:4.04749" /><path
               d="m 66.393,348.09 h 44.877 l -1.93,-24.12 C 95.583,323.71 97.873,303.7 97.873,303.7 c 0,0 -1.29,-11.63 8.567,-17.86 l 1.93,-27.5 c 11.68,-28.03 43.91,-28.4 43.91,-28.4 0,0 36.42,-8.44 48.26,40.95 -0.26,2.85 2.38,8.61 6.27,9.65 v 2.89 h -78.65"
               id="path5142"
               style="stroke-width:4.04749" /><path
               d="m 147.46,374.15 c 21.28,0.52 33.06,-6.94 42.95,-30.44 3.11,-15.57 5.04,-39.26 4.53,-60.28"
               id="path5144"
               style="stroke-width:4.04749" /><path
               d="M 249.76,345.68 H 188.48"
               id="path5146"
               style="stroke-width:4.04749" /><path
               d="m 176.14,340.29 c 0,9.67 -5.87,17.52 -13.1,17.52 -7.24,0 -13.11,-7.85 -13.11,-17.52 0,-9.67 5.87,-17.52 13.11,-17.52 7.23,0 13.1,7.85 13.1,17.52 z"
               id="path5148"
               style="stroke-width:4.04749" /></g><path
             d="m 286.99,9.6298 c -68.53,0 -131.28,24.9482 -179.72,66.2502 -1.27,1.084 -2.53,2.175 -3.78,3.281 -0.5,0.444 -1,0.896 -1.5,1.344 -1.07,0.96 -2.133,1.929 -3.189,2.906 -0.281,0.261 -0.563,0.519 -0.843,0.781 -1.25,1.166 -2.492,2.344 -3.719,3.531 -1.408,1.363 -2.809,2.734 -4.188,4.125 -1.353,1.366 -2.706,2.733 -4.031,4.125 -1.374,1.446 -2.719,2.932 -4.062,4.407 -0.154,0.17 -0.316,0.33 -0.469,0.5 -1.162,1.28 -2.3,2.57 -3.438,3.87 -1.242,1.43 -2.442,2.87 -3.656,4.32 -0.047,0.05 -0.109,0.1 -0.156,0.15 C 33.743,157.6 9.3329,219.95 9.3329,288 c 0,153.66 124.3771,278.34 277.6571,278.34 68.68,0 131.54,-25.07 180.03,-66.53 l 0.03,0.03 c 0.39,-0.33 0.78,-0.66 1.16,-1 0.16,-0.13 0.31,-0.27 0.47,-0.4 0.94,-0.82 1.88,-1.64 2.81,-2.47 0.74,-0.66 1.46,-1.31 2.19,-1.97 0.21,-0.19 0.42,-0.37 0.62,-0.56 0.97,-0.89 1.92,-1.79 2.88,-2.69 0.86,-0.81 1.71,-1.62 2.56,-2.44 0.12,-0.11 0.23,-0.23 0.35,-0.34 1.08,-1.06 2.14,-2.12 3.21,-3.19 0.32,-0.31 0.63,-0.62 0.94,-0.94 1.25,-1.26 2.49,-2.55 3.72,-3.84 0.12,-0.13 0.25,-0.25 0.38,-0.38 1.4,-1.48 2.81,-2.98 4.18,-4.5 1.26,-1.39 2.49,-2.8 3.72,-4.21 0.23,-0.27 0.46,-0.52 0.69,-0.79 1.05,-1.21 2.09,-2.45 3.12,-3.68 C 540.38,418.11 564.68,355.89 564.68,288 564.68,134.34 440.27,9.6172 286.99,9.6172 Z m 0,62.0622 c 119.11,0 215.78,96.908 215.78,216.308 0,50.85 -17.52,97.62 -46.84,134.56 L 151.43,119.78 C 188.48,89.72 235.64,71.688 286.99,71.688 Z M 118.37,153.1 422.93,455.94 C 385.81,486.18 338.51,504.31 286.99,504.31 167.88,504.31 71.24,407.4 71.24,288 c 0,-51 17.636,-97.91 47.13,-134.91 z"
             style="fill:#cc0000;stroke:none;stroke-width:0.674582"
             id="path5152" /><path
             d="M 287.04,318.7 298.6,161.04 c 2.87,-26.5 34.21,-20.56 33.63,0.53 l -4.73,84.61 c -1.11,11.8 8.79,11.85 9.46,2.1 L 348,136.87 c 6.79,-22.61 36.3,-13.53 35.2,4.21 l -12.08,116.13 c -2.83,13.15 8.26,12.18 9.98,5.26 l 11.56,-101.95 c 6.17,-20.92 37.31,-11.04 34.69,4.73 l -14.72,111.41 c -3.64,10.8 5.54,10.46 7.89,3.15 l 23.64,-59.91 c 7.89,-12.99 30.92,-3.65 24.7,14.19 0,0 -28.55,73.16 -33.01,83.22 -10.08,22.73 -12.92,50.41 -17.96,67.07 -5.26,13.67 -31.31,45.38 -50.69,53.7 -20.95,9 -64.96,-0.24 -80.69,-13.09 -23.37,-19.09 -17.07,-27.17 -22.87,-35.42 -8.47,-12.02 -22.95,-40.58 -27.05,-50.38 -6.83,-10.24 -21.74,-28.56 -25.75,-35.21 -8.31,-13.51 3.69,-21.86 12.08,-22.59 15.35,-1.25 22.73,4.72 30.48,14.71 l 22.08,29.95 c 4.29,9.61 11.98,7.61 11.56,-7.35 z"
             style="fill:#000000;fill-rule:evenodd;stroke-width:0.674582"
             id="path5154" /></g></g><g
         id="g5600"
         transform="translate(96.385588)"><g
           transform="matrix(0.39409311,0,0,0.39409311,1164.3971,341.1917)"
           id="g5182"
           style="stroke-width:0.666734"><circle
             cx="396"
             cy="529"
             r="285"
             style="fill:#ffffff;stroke:#000000;stroke-width:0.666734"
             id="circle5172" /><circle
             cx="396"
             cy="529"
             r="281"
             style="fill:#004488;stroke:none;stroke-width:0.666734"
             id="circle5174" /><g
             transform="translate(-0.53177,8.1835)"
             style="fill:#ffffff;fill-rule:evenodd;stroke:none;stroke-width:0.666734"
             id="g5180"><path
               d="m 389.56,294.9 c -118.3,-0.41 -117.32,64.91 -117.32,64.91 -9.78,35.77 -8.08,47.09 -9.59,60.34 -2.82,24.73 -13.08,25.26 -29.5,30.94 -8.31,0.93 -11.46,14.71 -2.09,19.91 9.26,5.14 18.04,8.23 24.21,8.75 l 1.04,20.59 c -10.07,0.9 -17.67,6.8 -15.97,15.44 l 21.09,87.53 c 2.57,12.35 9.85,11.86 11.34,11.31 14.01,-2.04 10.9,21.48 16.82,43.25 6.34,31.18 6.68,37.72 47.53,70.5 10.67,7.1 15.59,16.75 39.62,18.03 h 18.53 18.54 c 24.02,-1.28 28.95,-10.93 39.62,-18.03 40.85,-32.78 41.19,-39.32 47.53,-70.5 5.92,-21.77 2.81,-45.29 16.81,-43.25 1.5,0.55 8.77,1.04 11.35,-11.31 l 21.09,-87.53 c 1.7,-8.64 -5.9,-14.54 -15.97,-15.44 l 1.03,-20.59 c 6.18,-0.52 14.96,-3.61 24.22,-8.75 9.37,-5.2 6.22,-18.98 -2.09,-19.91 -16.42,-5.68 -26.68,-6.21 -29.5,-30.94 -1.51,-13.25 0.19,-24.57 -9.59,-60.34 0,0 0.98,-65.32 -117.32,-64.91 -1.87,0.01 -3.78,0.03 -5.72,0.07 l -0.32,178.14 c 32.79,-0.77 93.02,-13.17 110.29,-13.64 -29.06,6.87 -62.37,15.27 -110.26,17.71 l -0.2,8.25 c 26.6,-2.15 117.25,-17.02 153.9,-28.31 2.73,-1.02 15.97,2.6 3.06,9.25 0,0 -14.18,6.41 -17.12,7.56 -1.57,-8.78 -14.92,-9.27 -14.78,1.72 -0.28,3.4 -1.53,37.57 -1.53,37.57 0,0 -0.03,17.16 11.31,3.59 7.27,-14.06 13.53,-7.71 7.72,11.84 -7.34,36.41 -12.95,44.18 -19.57,77.75 -11.14,1.09 -14.39,-1.55 -18,12.35 0,0 -6.12,38.66 -17.53,69.5 -11.15,10.6 -25.05,27.14 -58.15,48.37 -4.04,2.25 -28.82,1.03 -28.82,1.03 0,0 -24.77,1.22 -28.81,-1.03 -33.1,-21.23 -47.01,-37.77 -58.15,-48.37 -11.41,-30.84 -17.54,-69.5 -17.54,-69.5 -3.6,-13.9 -6.86,-11.26 -18,-12.35 -6.61,-33.57 -12.22,-41.34 -19.56,-77.75 -5.82,-19.55 0.45,-25.9 7.72,-11.84 11.34,13.57 11.31,-3.59 11.31,-3.59 0,0 -1.26,-34.17 -1.53,-37.57 0.14,-10.99 -13.22,-10.5 -14.78,-1.72 -2.94,-1.15 -17.12,-7.56 -17.12,-7.56 -12.91,-6.65 0.33,-10.27 3.06,-9.25 36.64,11.29 126.36,25.93 152.96,28.08 l 0.15,-8.13 c -47.89,-2.44 -80.61,-10.73 -109.67,-17.6 17.27,0.47 76.91,12.75 109.7,13.52 l 0.26,-178.02 c -1.93,-0.04 -3.84,-0.06 -5.71,-0.07 z"
               id="path5176"
               style="stroke-width:0.666734" /><path
               d="m 400.99,294.9 c 118.3,-0.41 117.32,64.91 117.32,64.91 9.78,35.77 8.08,47.09 9.59,60.34 2.82,24.73 13.08,25.26 29.5,30.94 8.31,0.93 11.46,14.71 2.09,19.91 -9.26,5.14 -18.04,8.23 -24.22,8.75 l -1.03,20.59 c 10.07,0.9 17.67,6.8 15.97,15.44 l -21.09,87.53 c -2.58,12.35 -9.85,11.86 -11.35,11.31 -14,-2.04 -10.89,21.48 -16.81,43.25 -6.34,31.18 -6.68,37.72 -47.53,70.5 -10.67,7.1 -15.6,16.75 -39.62,18.03 h -18.54 -18.53 c -24.03,-1.28 -28.95,-10.93 -39.62,-18.03 -40.85,-32.78 -41.19,-39.32 -47.53,-70.5 -5.92,-21.77 -2.81,-45.29 -16.82,-43.25 -1.49,0.55 -8.77,1.04 -11.34,-11.31 l -21.09,-87.53 c -1.7,-8.64 5.9,-14.54 15.97,-15.44 l -1.04,-20.59 c -6.17,-0.52 -14.95,-3.61 -24.21,-8.75 -9.37,-5.2 -6.22,-18.98 2.09,-19.91 16.42,-5.68 26.68,-6.21 29.5,-30.94 1.51,-13.25 -0.19,-24.57 9.59,-60.34 0,0 -0.98,-65.32 117.32,-64.91 1.87,0.01 3.78,0.03 5.71,0.07 l 0.33,178.14 c -32.79,-0.77 -93.02,-13.17 -110.29,-13.64 29.06,6.87 62.37,15.27 110.26,17.71 l 0.2,8.25 c -26.6,-2.15 -117.26,-17.02 -153.9,-28.31 -2.73,-1.02 -15.97,2.6 -3.06,9.25 0,0 14.18,6.41 17.12,7.56 1.56,-8.78 14.92,-9.27 14.78,1.72 0.27,3.4 1.53,37.57 1.53,37.57 0,0 0.03,17.16 -11.31,3.59 -7.27,-14.06 -13.54,-7.71 -7.72,11.84 7.34,36.41 12.95,44.18 19.56,77.75 11.14,1.09 14.4,-1.55 18,12.35 0,0 6.13,38.66 17.54,69.5 11.14,10.6 25.05,27.14 58.15,48.37 4.04,2.25 28.81,1.03 28.81,1.03 0,0 24.78,1.22 28.82,-1.03 33.1,-21.23 47,-37.77 58.15,-48.37 11.41,-30.84 17.53,-69.5 17.53,-69.5 3.61,-13.9 6.86,-11.26 18,-12.35 6.62,-33.57 12.23,-41.34 19.57,-77.75 5.81,-19.55 -0.45,-25.9 -7.72,-11.84 -11.34,13.57 -11.31,-3.59 -11.31,-3.59 0,0 1.25,-34.17 1.53,-37.57 -0.14,-10.99 13.21,-10.5 14.78,-1.72 2.94,-1.15 17.12,-7.56 17.12,-7.56 12.91,-6.65 -0.33,-10.27 -3.06,-9.25 -36.65,11.29 -126.36,25.93 -152.96,28.08 l -0.15,-8.13 c 47.89,-2.44 80.61,-10.73 109.67,-17.6 -17.27,0.47 -76.91,12.75 -109.7,13.52 l -0.27,-178.02 c 1.94,-0.04 3.85,-0.06 5.72,-0.07 z"
               id="path5178"
               style="stroke-width:0.666734" /></g></g><g
           transform="matrix(0.39409311,0,0,0.39409311,1487.0423,632.26489)"
           id="g5210"
           style="stroke-width:0.666734"><circle
             cx="396"
             cy="529"
             r="285"
             style="fill:#ffffff;stroke:#000000;stroke-width:0.666734"
             id="circle5196" /><circle
             cx="396"
             cy="529"
             r="281"
             style="fill:#004488;stroke:none;stroke-width:0.666734"
             id="circle5198" /><g
             transform="translate(646.98,16.16)"
             style="fill:#ffffff;fill-rule:evenodd;stroke:none;stroke-width:0.666734"
             id="g5208"><path
               d="m -493.74,138.21 c 1.93,9.97 1.39,51.02 1.39,51.02 -6.04,13.04 8.45,-41.3 17.29,-48.43 19.95,3.54 59.54,-12.15 67.79,-29.4 4.18,13.2 80.17,29.4 90.79,29.4 -0.64,-4.82 -7.24,-11.44 -2.59,-9.51 3.99,1.66 28.53,5.19 28.53,5.19 -0.32,-1.61 -10.37,-15.56 -10.37,-15.56 46.65,-6.44 72.23,42.69 76.09,56.2 3.28,-18.27 -13.84,-51.02 -13.84,-51.02"
               transform="translate(107.73,241.82)"
               style="fill:none;stroke:#ffffff;stroke-width:4.00041;stroke-linecap:butt;stroke-linejoin:miter;stroke-miterlimit:4;stroke-opacity:1"
               id="path5200" /><path
               d="m -361.06,58.406 c -59.95,-0.209 -119.58,22.825 -168.75,69.904 l 7.53,48.53 h 0.09 c -6.01,1.6 -7.11,6.03 -7,10.66 0.14,5.79 -0.12,11.93 7.6,11.72 3.62,-0.1 3.94,13.68 -2.5,17.31 -34.28,19.32 -40.17,30.4 -37.1,64.34 2.87,31.68 5.43,38.25 12.97,70.91 4.86,21.06 20.18,29.56 44.97,32.88 24.57,3.28 22.94,2.2 40.13,19.75 l 11.75,-3.6 c -9.22,-11.78 -25.94,-91.4 -25.94,-91.4 l 4.9,-4.32 -3.46,-26.81 -8.85,-1.91 c 0,0.01 -5.36,-51.65 -8.15,-71.59 -1.42,-10.08 -4.91,-6.51 -7.79,-2.59 -2.81,3.82 -7.28,11 -10.37,-4.32 -0.84,-4.16 6.21,3.38 6.06,-12.09 -0.08,-8.14 -3.91,-9.59 -8.37,-9.69 l -4.35,-35.65 c 108.39,-62.778 212.18,-63.184 315.13,-0.41 l 0.09,-0.09 c 0.07,0.16 0.14,0.32 0.22,0.5 l -4.34,35.65 c -4.47,0.1 -8.3,1.55 -8.38,9.69 -0.15,15.47 6.9,7.93 6.06,12.09 -3.09,15.32 -7.56,8.14 -10.37,4.32 -2.88,-3.92 -6.37,-7.49 -7.78,2.59 -2.8,19.94 -8.16,71.6 -8.16,71.59 l -8.84,1.91 -3.47,26.81 4.91,4.32 c 0,0 -16.73,79.62 -25.94,91.4 l 11.75,3.6 c 17.18,-17.55 15.56,-16.47 40.12,-19.75 24.8,-3.32 40.11,-11.82 44.97,-32.88 7.54,-32.66 10.1,-39.23 12.97,-70.91 3.08,-33.94 -2.82,-45.02 -37.09,-64.34 -6.44,-3.63 -6.12,-17.41 -2.5,-17.31 7.71,0.21 7.45,-5.93 7.59,-11.72 0.11,-4.63 -0.99,-9.06 -7,-10.66 h 0.09 l 7.29,-46.9 c -0.79,0.11 -1.62,0.24 -2.47,0.4 l 2.43,-2.43 C -240.84,82.08 -301.11,58.615 -361.06,58.406 Z m 170.69,71.534 c 4.95,-0.72 7.86,-0.59 0.25,-1.63 z M -364.78,71.469 c 43.7,-0.306 89.08,10.741 124.12,33.871 -70.12,-32.228 -182.11,-28.673 -238.12,0.38 28.27,-22.286 70.3,-33.945 114,-34.251 z"
               transform="translate(107.73,241.82)"
               id="path5202"
               style="stroke-width:0.666734" /><g
               id="g5206"
               style="stroke-width:0.666734"><path
                 d="m -241.61,721.58 h -40.64 l -48.42,-39.77 -12.11,-29.4"
                 id="path1934"
                 style="fill:none;stroke:#ffffff;stroke-width:4.66714;stroke-linecap:butt;stroke-linejoin:miter;stroke-miterlimit:4" /><path
                 d="m -262.89,721.58 h 40.64 l 48.43,-39.77 12.1,-29.4"
                 id="path3738"
                 style="fill:none;stroke:#ffffff;stroke-width:4.66714;stroke-linecap:butt;stroke-linejoin:miter;stroke-miterlimit:4" /></g></g></g><g
           transform="matrix(0.39409311,0,0,0.39409311,1487.0423,341.1917)"
           id="g5235"
           style="stroke-width:0.666734"><circle
             cx="396"
             cy="529"
             r="285"
             style="fill:#ffffff;stroke:#000000;stroke-width:0.666734"
             id="circle5227" /><circle
             cx="396"
             cy="529"
             r="281"
             style="fill:#004488;stroke:none;stroke-width:0.666734"
             id="circle5229" /><g
             transform="translate(668.47,6.5237)"
             id="g2893"
             style="fill:#ffffff;stroke-width:0.666734"><path
               d="m -496.09,481.14 c 15.96,-54.62 5.67,-127.56 0.47,-137.16 -16.44,-76.96 -8.54,-93.92 -7.15,-116.83 0.39,-11.94 21.03,-29.36 28.72,0.9 4.59,18.1 4.25,58.92 9.18,64.37 3.87,1.56 -8.99,-86.89 -6.51,-95.09 7.14,-23.65 24.06,-12.27 25.6,0.3 8.24,40.66 6.42,72.54 11.35,75.39 2.32,-0.69 -6.4,-77.15 -4.38,-85.23 4.43,-17.75 19.48,-10.54 22.64,-3.94 6.87,14.71 9.94,76.36 13.71,74.85 2.6,-1.04 -3.33,-42.23 -2.79,-59.63 0.55,-17.46 22.22,-18.29 25.11,-4.86 14.54,47.76 14,93.54 16.95,101.18 1.29,59.44 35.86,151.8 50.66,176.45 -68.32,-1.6 -163.83,10.6 -183.56,9.3 z"
               transform="translate(107.73,241.82)"
               id="path1983"
               style="fill:#ffffff;fill-rule:evenodd;stroke:none;stroke-width:0.666734" /><path
               d="m -340.44,79.75 c -9.14,0.248 -20.5,11.741 -28.12,37.12 -2.55,-36.222 -24.69,-16.55 -27.69,-9.93 -9.29,16.28 -17.6,59.79 -15.12,76.12 2.34,8.18 6.7,4.02 6.45,-1.88 -0.45,-12.94 1.16,-17.36 2.46,-25.59 4.16,-16.69 4.79,-32.03 14.77,-46.56 1.39,-2.86 5.65,-6.95 8.72,-4.06 11.21,16.48 -5.59,70.11 2.6,70.4 9.26,0.34 7.01,-47.3 14.96,-59.96 6.15,-13.2 15.6,-28.118 21.38,-27.597 l 0.06,-0.032 c 8.92,6.394 6.92,15.309 6.44,24.089 -1.43,14.75 -14.8,65.41 -9.56,65.13 7.2,-0.39 5.96,-13.22 13.31,-33.75 4.13,-11.53 2.77,-15.79 14.19,-34.41 3.91,-6.58 9.53,-16.804 17.75,-15.527 14.02,12.297 -19.09,83.497 -11.25,85.247 9.22,-1.31 12.16,-37.16 28.65,-61.31 4.83,-6.4 8.61,-6.71 13.41,-5.78 6.71,2.57 0.13,27.33 -3.41,40.19 -29.19,77.73 -37.27,163.56 -22.87,245.5 -19.21,-3.74 -38.06,-8.32 -57.22,-12.54 l -1.19,7.97 68.44,15.19 c 0,0 -26.08,-108.96 11.12,-225.94 37.91,-98.705 -6.36,-83.673 -14.59,-67.93 2.88,-55.34 -36.82,-18.347 -39.19,-1.07 2.14,-21.277 -4.94,-33.349 -14.5,-33.09 z"
               transform="translate(107.73,241.82)"
               id="path1985"
               style="fill:#ffffff;fill-rule:evenodd;stroke:none;stroke-width:0.666734" /><path
               d="m -363.78,234.37 c -0.1,-8.66 24.75,-37.35 35.71,-43.05 36.52,-19.06 31.47,22.08 28.46,38.6 -3.3,25.98 -28.13,72.61 -28.13,72.61 -6.39,6.6 -9.74,1.39 -6.54,-4.58 40.57,-77.74 33.38,-105.66 19.78,-104.41 -13.59,1.25 -35.3,31.23 -43.33,41.61 -1.08,3.56 -5.69,8.11 -5.95,-0.78 z"
               transform="translate(107.73,241.82)"
               id="path2891"
               style="fill:#ffffff;fill-rule:evenodd;stroke:none;stroke-width:0.666734" /></g></g><g
           id="g5310"
           transform="matrix(0.39409311,0,0,0.39409311,1206.8527,727.56449)"
           style="stroke-width:0.666734"><g
             transform="translate(-107.73,-241.82)"
             id="g5254"
             style="stroke-width:0.666734"><circle
               cx="396"
               cy="529"
               r="285"
               style="fill:#ffffff;stroke:#000000;stroke-width:0.666734"
               id="circle5250" /><circle
               cx="396"
               cy="529"
               r="281"
               style="fill:#004488;stroke:none;stroke-width:0.666734"
               id="circle5252" /></g><g
             transform="translate(-87.278,-213.93)"
             id="layer1-1"
             style="stroke-width:0.666734"><g
               transform="translate(1178,-197.65)"
               style="fill:#ffffff;fill-opacity:1;stroke:none;stroke-width:0.666734"
               id="g5284"><path
                 d="m -936.44,659.06 -18.73,-71.27 c 0,0 31.06,-42.02 36.08,-54.81 0,0 35.63,1.37 68.07,-37.92 0,0 23.75,-3.65 47.05,-15.53 22.47,8.08 79.48,20.56 79.48,20.56 26.04,41.11 71.72,89.99 71.72,89.99 l -16.44,71.72 -10.05,-0.46 16.9,-67.15 -64.87,-60.3 c -3.2,7.31 4.57,19.64 4.57,19.64 0,-0.45 -32.43,-5.02 -50.25,-23.29 1.55,12.37 12.79,21.01 12.79,21.01 2.29,1.83 -65.32,-1.37 -88.62,-39.74 0,0 -25.12,52.07 -65.32,37.46 l -31.52,41.11 19.19,71.72 z"
                 id="path5256"
                 style="stroke-width:0.666734" /><path
                 d="m -865.06,672.72 c -16.56,0.11 -34.13,2.23 -46.6,7.19 0,0 10.87,66.84 13.19,70.71 16.24,17.61 27.04,15.11 38.97,14.47 10.84,-0.51 27.7,-4.67 36.91,-26.59 2.32,-5.42 1.03,-59.63 1.03,-59.63 -7.27,-3.83 -24.74,-6.28 -43.5,-6.15 z m 11.25,12.62 c 10.82,-0.18 19.79,0.45 21.65,2.32 3.36,-3.1 0.96,43.25 0,46.96 -2.96,10.2 -13.11,17.73 -26.5,20.35 -14.8,2.89 -29.24,-2.02 -34.4,-17.5 -2.58,-4.65 -6,-46.24 -6.19,-46.72 4.19,-2.58 27.4,-5.1 45.44,-5.41 z"
                 id="path5258"
                 style="stroke-width:0.666734" /><path
                 d="m -847.84,691.41 c -14.99,0.58 -30.18,0.02 -44.78,3.75 2.69,15.27 0.29,32.26 8.09,46.18 9.38,12.02 28.62,10.22 39.56,1.35 7.44,-5.25 8.26,-14.65 7.86,-22.97 0.11,-9.1 1.59,-18.72 -0.05,-27.56 -3.27,-1.2 -7.22,-0.45 -10.68,-0.75 z"
                 id="path5260"
                 style="stroke-width:0.666734" /><path
                 d="m -938.19,666.94 c 6.62,0 19.69,5.95 22.54,9.61 1.1,1.42 -0.32,10.87 -0.32,10.87 -5.83,-5.51 -23.01,-12.76 -23.01,-12.76 z"
                 id="path5262"
                 style="stroke-width:0.666734" /><path
                 d="m -920.54,665.52 c 0,0 36.87,0.79 34.82,1.89 -4.77,2.57 -26.78,6.46 -26.78,6.46 z"
                 id="path5264"
                 style="stroke-width:0.666734" /><path
                 d="m -926.69,687.23 c 2.1,2.1 11.19,6.3 11.19,6.3 -1.17,4.2 11.07,49.43 8.51,49.78 -15.13,-3.48 -20.41,-56.78 -19.7,-56.08 z"
                 id="path5266"
                 style="stroke-width:0.666734" /><path
                 d="m -803.62,677.59 c -0.14,0.01 -0.28,0.03 -0.41,0.03 -0.07,0.01 -0.15,0 -0.22,0 -0.15,0.01 -0.29,0.03 -0.44,0.04 -0.35,0.02 -0.7,0.07 -1.06,0.12 -0.04,0.01 -0.08,0 -0.12,0 -4.65,0.6 -7.63,2.5 -7.63,2.5 v 7.31 c 0,0 0.71,-0.38 2.03,-0.81 3.25,-0.68 6.05,-0.94 8.41,-1 2.37,0.06 5.16,0.34 8.44,1.03 1.28,0.42 1.96,0.78 1.96,0.78 v -7.31 c 0,0 -2.98,-1.9 -7.62,-2.5 -0.04,0 -0.09,0.01 -0.13,0 -0.36,-0.05 -0.71,-0.1 -1.06,-0.12 -0.15,-0.02 -0.29,-0.03 -0.44,-0.04 -0.07,0 -0.14,0.01 -0.21,0 -0.32,-0.01 -0.63,-0.03 -0.94,-0.03 -0.19,0 -0.37,0 -0.56,0 z"
                 id="path5268"
                 style="stroke-width:0.666734" /><path
                 d="m -803.62,692.86 c -0.14,0.01 -0.28,0.03 -0.41,0.03 -0.07,0.01 -0.15,0 -0.22,0 -0.15,0.01 -0.29,0.02 -0.44,0.04 -0.35,0.02 -0.7,0.07 -1.06,0.12 -0.04,0.01 -0.08,-0.01 -0.12,0 -4.65,0.6 -7.63,2.5 -7.63,2.5 v 7.31 c 0,0 0.71,-0.38 2.03,-0.81 3.25,-0.68 6.05,-0.94 8.41,-1 2.37,0.06 5.16,0.34 8.44,1.03 1.28,0.42 1.96,0.78 1.96,0.78 v -7.31 c 0,0 -2.98,-1.9 -7.62,-2.5 -0.04,0 -0.09,0.01 -0.13,0 -0.36,-0.05 -0.71,-0.1 -1.06,-0.12 -0.15,-0.02 -0.29,-0.03 -0.44,-0.04 -0.07,0 -0.14,0.01 -0.21,0 -0.32,-0.01 -0.63,-0.03 -0.94,-0.03 -0.19,0 -0.37,0 -0.56,0 z"
                 id="path5270"
                 style="stroke-width:0.666734" /><path
                 d="m -744.47,672.72 c -17.49,0.16 -33.35,2.54 -40.19,6.15 0,0 -1.29,54.21 1.04,59.63 9.2,21.92 26.06,26.08 36.9,26.59 11.93,0.64 22.73,3.14 38.97,-14.47 2.32,-3.87 13.16,-70.71 13.16,-70.71 -13.3,-5.3 -32.39,-7.35 -49.88,-7.19 z m -13.19,12.62 c 18.44,-0.17 46.08,2.57 50.69,5.41 -0.19,0.48 -3.64,42.07 -6.22,46.72 -5.16,15.48 -19.6,20.39 -34.4,17.5 -13.39,-2.62 -23.54,-10.15 -26.5,-20.35 -0.96,-3.71 -3.36,-50.06 0,-46.96 1.55,-1.56 8.05,-2.24 16.43,-2.32 z"
                 id="path5272"
                 style="stroke-width:0.666734" /><path
                 d="m -758.39,691.41 c 14.98,0.58 30.17,0.02 44.78,3.75 -2.7,15.27 -0.3,32.26 -8.09,46.18 -9.39,12.02 -28.63,10.22 -39.57,1.35 -7.44,-5.25 -8.25,-14.65 -7.86,-22.97 -0.11,-9.1 -1.58,-18.72 0.05,-27.56 3.27,-1.2 7.23,-0.45 10.69,-0.75 z"
                 id="path5274"
                 style="stroke-width:0.666734" /><path
                 d="m -668.05,666.94 c -6.62,0 -19.69,5.95 -22.53,9.61 -1.1,1.42 0.31,10.87 0.31,10.87 5.83,-5.51 23.01,-12.76 23.01,-12.76 z"
                 id="path5276"
                 style="stroke-width:0.666734" /><path
                 d="m -685.7,665.52 c 0,0 -36.87,0.79 -34.82,1.89 4.78,2.57 26.79,6.46 26.79,6.46 z"
                 id="path5278"
                 style="stroke-width:0.666734" /><path
                 d="m -679.54,687.23 c -2.1,2.1 -11.2,6.3 -11.2,6.3 1.17,4.2 -11.07,49.43 -8.51,49.78 15.13,-3.48 20.41,-56.78 19.71,-56.08 z"
                 id="path5280"
                 style="stroke-width:0.666734" /><path
                 d="m -943.47,680.31 c -0.19,-0.01 -0.35,0.02 -0.5,0.03 -5.79,0.63 -10,8.72 -9.78,10.63 0.65,6.75 16.75,70.81 16.75,70.81 4.05,37.17 18.98,27.71 20.5,29.16 4.23,4.05 6.1,26.55 9.5,34.78 4.97,46.74 25.87,55.35 35.84,63.97 32.26,33.53 47.55,26.72 68.04,27.93 0.08,0.01 0.16,0 0.25,0 20.48,-1.21 35.8,5.6 68.06,-27.93 9.97,-8.62 30.84,-17.23 35.81,-63.97 3.4,-8.23 5.27,-30.73 9.5,-34.78 1.52,-1.45 16.45,8.01 20.5,-29.16 0,0 16.13,-64.06 16.78,-70.81 0.23,-1.91 -3.99,-10 -9.78,-10.63 -2.4,-0.26 -10.44,3 -10.37,5.6 12.03,1.81 11.77,2.42 10.21,11.25 0,0 -16.47,66.01 -21.93,84.43 -15.83,1.29 -15.63,7.36 -17.38,16.79 -1.84,9.93 -8.21,44.32 -14.28,59.59 -19.28,23.59 -32.88,32.28 -54.03,47.81 -6.44,3.68 -22.6,3.2 -32.91,3.75 0,0 -27.09,-0.07 -33.53,-3.75 -21.15,-15.53 -34.72,-24.22 -54,-47.81 -6.07,-15.27 -12.44,-49.66 -14.28,-59.59 -1.75,-9.43 -1.58,-15.5 -17.41,-16.79 -5.46,-18.42 -21.9,-84.43 -21.9,-84.43 -1.56,-8.83 -1.85,-9.44 10.19,-11.25 0.06,-2.44 -6.99,-5.47 -9.85,-5.63 z"
                 id="path5282"
                 style="stroke-width:0.666734" /></g></g></g></g><g
         id="g5556"
         transform="translate(-25.885063)"><g
           transform="matrix(0.41026412,0,0,0.41026412,514.57833,330.08571)"
           id="g4829"
           style="stroke-width:0.64491"><g
             transform="translate(94.84399,251.5248)"
             id="g4797"
             style="stroke-width:0.64491"><path
               fill="#ffff00"
               d="M 295.84375,9.625 C 280.56684,9.7059068 270.50089,23.813625 265.0625,36.5 172.18368,198.06519 78.058421,358.93364 -14,520.9375 c -6.829463,19.17797 12.9116342,40.6051 32.53125,36.28125 189.33236,-0.28785 378.67368,0.67933 568,-0.5625 19.52377,-3.26418 29.12223,-30.54977 15.9375,-45.375 C 507.43559,347.23157 413.38004,182.58741 317.6875,18.9375 312.13891,12.888602 304.08329,9.328277 295.84375,9.625 Z"
               id="path4789"
               style="stroke-width:0.644792" /><g
               transform="translate(-3.188547,21.62979)"
               id="g4795"
               style="stroke-width:0.64491"><path
                 d="M 597.6,499.6 313.8,8 C 310.9,3 305.6,0 299.9,0 294.2,0 288.9,3.1 286,8 L 2.2,499.6 c -2.9,5 -2.9,11.1 0,16 2.9,5 8.2,8 13.9,8 h 567.6 c 5.7,0 11,-3.1 13.9,-8 2.9,-5 2.9,-11.1 0,-16 z"
                 id="path4791"
                 style="stroke-width:0.64491" /><path
                 fill="#f7f619"
                 d="m 43.9,491.5 256,-443.3 256,443.3 z"
                 id="path4793"
                 style="stroke-width:0.644792" /></g></g><g
             transform="matrix(1.1179,0,0,1.1179,699.4619,-56.42374)"
             id="g4827"
             style="stroke-width:0.64491"><g
               transform="translate(0.852233)"
               id="g4811"
               style="stroke-width:0.64491"><use
                 xlink:href="#a"
                 fill-rule="evenodd"
                 transform="translate(3.933204,-1.090181)"
                 id="use4799"
                 style="stroke-width:0.644792" /><g
                 stroke="#000000"
                 transform="translate(3.933204,-1.090181)"
                 id="g4809"
                 style="stroke-width:0.644792"><use
                   xlink:href="#b"
                   stroke-width="3.42767"
                   id="use4801" /><use
                   xlink:href="#c-9"
                   stroke-linecap="round"
                   stroke-width="3.42767"
                   id="use4803" /><use
                   xlink:href="#d-7"
                   stroke-width="3.42767"
                   id="use4805" /><use
                   xlink:href="#e"
                   stroke-linecap="round"
                   stroke-linejoin="bevel"
                   stroke-width="3.42767"
                   id="use4807" /></g></g><g
               transform="matrix(-1,0,0,1,-551.9426,0)"
               id="g4825"
               style="stroke-width:0.64491"><use
                 xlink:href="#a"
                 fill-rule="evenodd"
                 transform="translate(3.933204,-1.090181)"
                 id="use4813"
                 style="stroke-width:0.644792" /><g
                 stroke="#000000"
                 transform="translate(3.933204,-1.090181)"
                 id="g4823"
                 style="stroke-width:0.644792"><use
                   xlink:href="#b"
                   stroke-width="3.42767"
                   id="use4815" /><use
                   xlink:href="#c-9"
                   stroke-linecap="round"
                   stroke-width="3.42767"
                   id="use4817" /><use
                   xlink:href="#d-7"
                   stroke-width="3.42767"
                   id="use4819" /><use
                   xlink:href="#e"
                   stroke-linecap="round"
                   stroke-linejoin="bevel"
                   stroke-width="3.42767"
                   id="use4821" /></g></g></g></g><g
           style="stroke:#000000;stroke-width:0.616465;stroke-linejoin:round"
           id="g4900"
           transform="matrix(0.42817342,0,0,0.43021813,220.64475,433.50773)"><path
             d="M 308,24 592,516 H 24 Z"
             stroke="#ffff00"
             stroke-width="30.8232"
             id="path4885" /><path
             d="M 308,24 592,516 H 24 Z"
             fill="#ffff00"
             stroke-width="19.7269"
             id="path4887" /><path
             d="M 220,275 396,451 M 220,451 396,275"
             stroke-width="43.1525"
             id="path4889" /></g><g
           inkscape:label="Layer 1"
           id="layer1-9"
           transform="matrix(0.41026412,0,0,0.41026412,196.62182,636.39725)"
           style="stroke-width:0.64491"><path
             id="path2889"
             d="m 379.25912,224.007 c -15.27691,0.0809 -25.34286,14.18863 -30.78125,26.875 -92.87882,161.56519 -187.00408,322.43364 -279.0625,484.4375 -6.829463,19.17797 12.911634,40.6051 32.53125,36.28125 189.33236,-0.28785 378.67368,0.67933 568,-0.5625 19.52377,-3.26418 29.12223,-30.54977 15.9375,-45.375 C 590.85096,561.61357 496.79541,396.96941 401.10287,233.3195 c -5.54859,-6.0489 -13.60421,-9.60922 -21.84375,-9.3125 z"
             style="fill:#ffff00;stroke-width:0.64491" /><path
             d="m 677.82682,735.6118 -283.8,-491.6 c -2.9,-5 -8.2,-8 -13.9,-8 -5.7,0 -11,3.1 -13.9,8 l -283.8,491.6 c -2.9,5 -2.9,11.1 0,16 2.9,5 8.2,8 13.9,8 h 567.6 c 5.7,0 11,-3.1 13.9,-8 2.9,-5 2.9,-11.1 0,-16 z"
             id="sign_border-7"
             style="stroke-width:0.64491" /><path
             id="path3895"
             d="m 677.82682,735.6118 -283.8,-491.6 c -2.9,-5 -8.2,-8 -13.9,-8 -5.7,0 -11,3.1 -13.9,8 l -283.8,491.6 c -2.9,5 -2.9,11.1 0,16 2.9,5 8.2,8 13.9,8 h 567.6 c 5.7,0 11,-3.1 13.9,-8 2.9,-5 2.9,-11.1 0,-16 z"
             style="stroke-width:0.64491" /><polygon
             style="fill:#f7f619;stroke-width:0.64491"
             id="sign_bg-4"
             points="299.9,48.2 555.9,491.5 43.9,491.5 "
             transform="translate(80.22682,236.0118)" /><polygon
             transform="translate(80.22682,236.0118)"
             points="299.9,48.2 555.9,491.5 43.9,491.5 "
             id="polygon3900"
             style="fill:#f7f619;stroke-width:0.64491" /><g
             id="g3850"
             transform="matrix(1.135384,0,0,1.135384,733.0771,-76.93516)"
             style="fill:#000000;stroke-width:0.64491"><path
               id="path1974"
               transform="translate(68.03585,223.9898)"
               d="m -503.125,390 c -16.56308,4.29684 -28.8125,19.34895 -28.8125,37.25 0,21.24471 17.25529,38.5 38.5,38.5 12.94599,0 24.39754,-6.40935 31.375,-16.21875 -0.95903,-0.80793 -1.98266,-1.71188 -2.25,-2.78125 -0.32045,-1.28182 0.0759,-2.67405 -0.96875,-3.71875 -0.8136,-0.8136 -1.31653,-1.84476 -2.5625,-2.15625 -1.16665,-0.29166 -3.02586,-0.44482 -4.3125,-0.1875 -0.93305,0.18661 -3.71875,1.29409 -3.71875,0 0,-1.04933 0.134,-2.02967 -0.40625,-2.75 -0.68515,-0.91354 -3.03556,0.32656 -3.3125,-0.78125 -0.31763,-1.27052 1.3759,-1.40715 2.53125,-2.5625 0.19616,-0.19616 -1.14196,-1.35261 0.59375,-0.59375 1.33556,0.58392 -0.31623,-3.17504 0.59375,-4.3125 0.97957,-1.22448 4.71875,-2.15748 4.71875,-3.71875 0,-1.13328 -0.31466,-1.64271 0,-3.71875 0.26112,-1.72275 -0.21361,-1.36847 -2.5625,-0.78125 -0.26155,0.0654 -0.70439,-0.86536 -0.96875,-0.8125 -1.0197,0.20394 -3.50056,0.89828 -4.71875,0.59375 -1.36266,-0.34067 -1.45085,-1.51002 -2.5625,-2.34375 -1.02273,-0.76704 -1.3299,-0.78124 -2.75,-0.78125 -1.65606,0 -2.21864,-1.46866 -3.3125,-2.5625 -1.29245,-1.29244 -2.26815,-1.75001 -4.125,-1.75 -2.19453,0 -4.08621,0.375 -6.28125,0.375 -1.23721,0 -3.82274,0.52101 -4.71875,-0.375 -1.0717,-1.0717 -0.92323,-2.1607 -0.375,-3.53125 0.49655,-1.24139 1.72784,-1.89315 2.15625,-2.75 0.80845,-1.61692 3.40721,-1.48048 4.5,-2.9375 0.77576,-1.03435 0.78126,-2.26734 0.78125,-3.9375 0,-1.67351 -0.93814,-3.57379 -1.9375,-4.90625 -0.75049,-1.00065 -2.27343,-1.45571 -2.5625,-1.9375 -0.49171,-0.8195 -1.12658,-2.50157 -1.78125,-3.15625 -0.21902,-0.21902 -0.47246,-0.43504 -0.75,-0.65625 z"
               style="fill:#000000;fill-opacity:1;stroke:none;stroke-width:0.571278;stroke-linecap:round;stroke-linejoin:bevel;stroke-miterlimit:4;stroke-dasharray:none;stroke-opacity:1" /><path
               sodipodi:nodetypes="csssss"
               transform="translate(68.03585,223.9898)"
               id="path2884"
               d="m -516.6802,385.36213 c 1.91254,1.02983 2.89333,3.28565 1.96158,4.90395 -0.93175,1.6183 -3.62892,1.6183 -5.68858,1.56926 -2.05966,-0.049 -2.05966,-0.34327 -2.55005,-1.76542 -0.4904,-1.42214 -0.98079,-2.74621 0.58847,-3.92316 1.56926,-1.17695 3.77604,-1.81446 5.68858,-0.78463 z"
               style="fill:#000000;fill-opacity:1;fill-rule:evenodd;stroke:none;stroke-width:0.571278;stroke-linecap:butt;stroke-linejoin:miter;stroke-miterlimit:4;stroke-dasharray:none;stroke-opacity:1" /><path
               sodipodi:nodetypes="csssss"
               transform="translate(68.03585,223.9898)"
               id="path2886"
               d="m -507.85309,381.63513 c 1.22599,0.68655 1.91255,2.20677 1.56927,3.33468 -0.34328,1.12791 -1.71638,1.32407 -2.94237,1.17695 -1.22599,-0.14712 -1.47118,-0.78463 -1.96158,-1.76542 -0.4904,-0.98079 -0.83367,-1.47119 0,-2.15774 0.83367,-0.68655 2.10869,-1.27502 3.33468,-0.58847 z"
               style="fill:#000000;fill-opacity:1;fill-rule:evenodd;stroke:none;stroke-width:0.571278;stroke-linecap:butt;stroke-linejoin:miter;stroke-miterlimit:4;stroke-dasharray:none;stroke-opacity:1" /><path
               sodipodi:nodetypes="csssssssssssssss"
               transform="translate(68.03585,223.9898)"
               id="path2888"
               d="m -482.74486,397.52393 c 2.30486,-0.44135 3.53085,-1.32407 6.0809,-0.98079 2.55005,0.34328 2.01061,1.42214 4.11931,2.35389 2.1087,0.93175 2.3539,0.29424 4.31548,1.37311 1.96158,1.07887 3.62892,1.81446 3.53084,2.94237 -0.0981,1.12791 -2.15774,0.49039 -3.92316,1.56926 -1.76542,1.07887 -1.6183,1.76543 -3.13852,2.74622 -1.52022,0.98079 -1.52022,0.39231 -2.94237,1.17694 -1.42215,0.78463 -1.52023,1.91254 -2.74622,1.96158 -1.22599,0.049 -0.68655,-0.68655 -2.15773,-1.76542 -1.47119,-1.07887 -2.74622,-2.55005 -3.72701,-2.55005 -0.98079,0 -3.43276,0.34328 -5.49242,0 -2.05966,-0.34328 -2.25582,0 -2.74621,-1.37311 -0.4904,-1.37311 -0.63751,-2.45198 0.78463,-4.11932 1.42215,-1.66734 2.89333,-1.71638 4.90395,-2.55005 2.01062,-0.83367 0.83367,-0.34328 3.13853,-0.78463 z"
               style="fill:#000000;fill-opacity:1;fill-rule:evenodd;stroke:none;stroke-width:0.571278;stroke-linecap:butt;stroke-linejoin:miter;stroke-miterlimit:4;stroke-dasharray:none;stroke-opacity:1" /><path
               sodipodi:nodetypes="cssssssssssssssssssss"
               transform="translate(68.03585,223.9898)"
               id="path2890"
               d="m -465.09064,418.31668 c 1.37311,-2.3539 1.02983,-3.77605 1.96158,-5.68859 0.93175,-1.91254 -0.4904,-1.47119 1.76542,-1.96158 2.25582,-0.49039 3.48181,0 7.25785,0 3.77604,0 5.29627,-0.29424 7.84632,0 2.55005,0.29424 1.71638,0.19616 2.35389,1.17695 0.63751,0.98079 0.58847,1.47118 0.19616,2.74621 -0.39232,1.27503 -0.73559,1.61831 -1.76542,2.3539 -1.02983,0.73559 -1.56927,-0.34328 -2.3539,0.58847 -0.78463,0.93175 -1.12791,2.15774 -0.78463,3.13853 0.34328,0.98079 1.12791,-0.29424 2.15774,0.78463 1.02983,1.07887 1.96158,2.01063 1.96158,3.53085 0,1.52022 -0.58847,1.47118 -1.96158,2.55005 -1.37311,1.07887 -1.12791,1.07887 -3.53085,1.76542 -2.40293,0.68655 -3.2366,0.68655 -6.08089,0.98079 -2.84429,0.29424 -4.31548,0.19616 -5.29627,0.19616 -0.98079,0 -3.08949,0.19615 -5.10011,-0.19616 -2.01062,-0.39231 -2.01062,-0.0981 -2.94237,-1.3731 -0.93175,-1.27502 -0.98079,-2.01062 -0.78463,-3.727 0.19616,-1.71638 0.29423,-1.42215 1.56926,-3.13853 1.27503,-1.71638 2.15774,-1.3731 3.53085,-3.727 z"
               style="fill:#000000;fill-opacity:1;fill-rule:evenodd;stroke:none;stroke-width:0.571278;stroke-linecap:butt;stroke-linejoin:miter;stroke-miterlimit:4;stroke-dasharray:none;stroke-opacity:1" /><path
               sodipodi:nodetypes="csssssssssss"
               transform="translate(68.03585,223.9898)"
               id="path2892"
               d="m -449.98648,460.09833 c 2.30486,0.78463 4.07029,0.63752 5.88475,2.55006 1.81446,1.91254 1.02982,3.13852 1.3731,5.1001 0.34327,1.96158 1.02983,2.01063 0,2.74622 -1.02983,0.73559 -2.3539,0.73558 -4.11932,0.19615 -1.76542,-0.53943 -1.22599,-1.22598 -2.94237,-2.35389 -1.71638,-1.12791 -2.01062,-1.42215 -3.92316,-2.15774 -1.91254,-0.73559 -2.64813,0.19616 -3.727,-0.78463 -1.07887,-0.98079 -0.49039,-1.71638 -0.58847,-3.13853 -0.0981,-1.42214 -0.9808,-1.8635 0.19615,-2.55005 1.17695,-0.68655 2.55006,-0.29424 4.51164,-0.19616 1.96158,0.0981 1.02982,-0.19616 3.33468,0.58847 z"
               style="fill:#000000;fill-opacity:1;fill-rule:evenodd;stroke:none;stroke-width:0.571278;stroke-linecap:butt;stroke-linejoin:miter;stroke-miterlimit:4;stroke-dasharray:none;stroke-opacity:1" /><path
               sodipodi:nodetypes="cssssssssssssssssssssssssss"
               transform="translate(68.03585,223.9898)"
               id="path2894"
               d="m -425.17826,230.96119 c 1.40028,-1.55837 2.58117,-2.04034 4.22819,-4.22818 1.64702,-2.18784 1.86826,-3.83486 2.35991,-4.52317 0.49165,-0.68831 1.91743,-3.0728 2.85157,-4.91649 0.93414,-1.84368 -0.12291,-1.22912 0.88497,-2.45825 1.00788,-1.22912 2.6549,-2.45825 3.14655,-2.45825 0.49165,0 2.16326,0.73748 3.73654,1.17996 1.57328,0.44249 1.00788,0.61456 2.55657,0.58998 1.5487,-0.0246 1.99118,-0.29499 3.63821,-0.68831 1.64702,-0.39332 1.2537,-1.27829 2.94989,-0.88497 1.69619,0.39332 2.87615,1.05705 3.83487,2.45825 0.95872,1.4012 0.4179,1.45036 0,3.14655 -0.4179,1.69619 -1.37662,3.14656 -1.67161,3.63821 -0.29499,0.49165 -0.39332,2.31075 -1.17996,3.73653 -0.78664,1.42578 -0.68831,0.5654 -1.9666,1.9666 -1.27829,1.4012 -2.75323,3.44154 -3.14655,3.6382 -0.39332,0.19666 -2.06493,1.59786 -3.14656,3.14656 -1.08163,1.54869 -0.17207,1.49952 -1.17995,3.04822 -1.00788,1.54869 -1.22913,1.49954 -2.85157,3.14656 -1.62244,1.64702 -2.16325,1.74535 -3.6382,3.44154 -1.47495,1.69619 -0.76206,2.55658 -2.26159,3.34322 -1.49953,0.78664 -2.75324,0 -3.73653,-0.19666 -0.9833,-0.19666 -3.24489,-2.45825 -3.53988,-2.85157 -0.29499,-0.39332 -1.86827,-2.6549 -2.16326,-3.04822 -0.29498,-0.39332 -1.76993,-2.9499 -1.96659,-3.34322 -0.19666,-0.39332 -0.78664,-3.44154 -0.39332,-3.93319 0.39332,-0.49165 2.53107,-2.81208 2.6549,-2.9499 z"
               style="fill:#000000;fill-opacity:1;fill-rule:evenodd;stroke:none;stroke-width:0.571278;stroke-linecap:butt;stroke-linejoin:miter;stroke-miterlimit:4;stroke-dasharray:none;stroke-opacity:1" /><path
               sodipodi:nodetypes="cssssssssssssssssssssssssssss"
               transform="translate(68.03585,223.9898)"
               id="path2896"
               d="m -352.61083,229.78124 c 1.89285,-0.36874 3.93319,-1.08163 4.22818,-1.47495 0.29499,-0.39332 0.93414,-1.32745 2.16326,-2.16326 1.22913,-0.8358 0.86039,-1.15538 2.75324,-1.17996 1.89285,-0.0246 3.41696,0 4.81816,1.08163 1.4012,1.08163 0.51623,1.79453 0.78664,3.24489 0.27041,1.45036 -0.17207,1.20454 0.29499,2.55657 0.46707,1.35204 1.74535,1.32746 1.57327,2.85157 -0.17208,1.52411 -1.6716,2.75323 -2.26158,3.24488 -0.58998,0.49165 -1.67161,1.57328 -2.85157,3.24489 -1.17996,1.67161 -1.27829,2.94989 -1.86826,3.44154 -0.58998,0.49165 -2.85157,2.45825 -3.44155,2.65491 -0.58998,0.19666 -2.94989,2.35992 -3.73653,2.85156 -0.78664,0.49165 -1.84369,1.91743 -3.53988,3.14656 -1.69619,1.22912 -2.6549,1.76994 -3.24488,1.76994 -0.58998,0 -2.85157,0.39332 -3.83487,0.0983 -0.98329,-0.29499 -1.57327,-0.9833 -2.55657,-0.9833 -0.9833,0 -2.55658,-0.39332 -3.24489,-0.78664 -0.68831,-0.39332 -1.47495,-2.06493 -1.96659,-2.45825 -0.49165,-0.39332 -0.88497,-3.04822 -1.17996,-3.53987 -0.29499,-0.49165 -0.39332,-2.06493 -0.39332,-2.85157 0,-0.78664 0.39332,-2.35991 0.88497,-3.14655 0.49165,-0.78664 0.78664,-0.88497 1.27828,-2.35992 0.49165,-1.47495 1.37662,-3.04822 1.47495,-3.6382 0.0983,-0.58998 1.76994,-2.45825 2.26159,-2.85157 0.49165,-0.39332 1.76994,-1.57328 2.16326,-2.06492 0.39332,-0.49165 1.72077,-0.61456 3.24488,-0.78664 1.52411,-0.17208 2.16326,0.0983 2.85157,0.0983 0.68831,0 1.45036,0.36874 3.34321,0 z"
               style="fill:#000000;fill-opacity:1;fill-rule:evenodd;stroke:none;stroke-width:0.571278;stroke-linecap:butt;stroke-linejoin:miter;stroke-miterlimit:4;stroke-dasharray:none;stroke-opacity:1" /><path
               sodipodi:nodetypes="cssssssssssssssss"
               transform="translate(68.03585,223.9898)"
               id="path2898"
               d="m -334.02649,361.14991 c 2.85156,-1.49953 5.01483,-2.60574 8.94802,-4.42484 3.9332,-1.8191 6.19478,-2.85157 6.78476,-2.85157 0.58998,0 2.31075,0.66373 4.22818,2.06493 1.91743,1.4012 2.58116,2.11409 3.44155,3.53987 0.86039,1.42578 0.12291,0.66373 0,2.16326 -0.12291,1.49953 0.49165,2.21242 -0.49165,3.83486 -0.9833,1.62244 -3.04823,2.45825 -3.44155,2.65491 -0.39332,0.19666 -0.49164,2.33534 -2.35991,3.04823 -1.86827,0.71289 -3.24489,0.19666 -5.11316,-0.19666 -1.86827,-0.39332 -1.76993,-1.47495 -2.35991,-1.37662 -0.58998,0.0983 -3.73654,0.9833 -4.52318,0.9833 -0.78663,0 -2.55657,0.78664 -3.93319,0.88496 -1.37662,0.0983 -2.75323,-1.30287 -4.22818,-2.75323 -1.47495,-1.45036 -1.76994,-2.65491 -1.67161,-3.04823 0.0983,-0.39332 1.08163,-1.8191 2.26159,-2.94989 1.17996,-1.13079 -0.39333,-0.0737 2.45824,-1.57328 z"
               style="fill:#000000;fill-opacity:1;fill-rule:evenodd;stroke:none;stroke-width:0.571278;stroke-linecap:butt;stroke-linejoin:miter;stroke-miterlimit:4;stroke-dasharray:none;stroke-opacity:1" /><path
               sodipodi:nodetypes="csssssssss"
               transform="translate(68.03585,223.9898)"
               id="path2900"
               d="m -373.94841,442.66535 c 1.88265,0.82741 3.19573,1.30287 5.21149,2.35992 2.01576,1.05705 2.33533,0.76206 2.85156,1.86827 0.51623,1.10621 1.2537,1.79451 -0.78664,2.55657 -2.04035,0.76206 -6.29311,0.58998 -7.37474,0.49165 -1.08162,-0.0983 -4.32651,-0.54081 -6.09645,-1.76993 -1.76994,-1.22912 -0.78663,-2.55658 -0.98329,-3.14656 -0.19666,-0.58998 -0.29499,-3.04823 0.0983,-3.04823 0.39331,0 2.16326,0.4179 3.93319,0.58998 1.76993,0.17208 1.16975,-0.77046 3.14655,0.0983 z"
               style="fill:#000000;fill-opacity:1;fill-rule:evenodd;stroke:none;stroke-width:0.571278;stroke-linecap:butt;stroke-linejoin:miter;stroke-miterlimit:4;stroke-dasharray:none;stroke-opacity:1" /><path
               sodipodi:nodetypes="csssssssssssssssss"
               transform="translate(68.03585,223.9898)"
               id="path2902"
               d="m -352.90582,438.04385 c 2.1608,-0.4549 4.57234,-0.0738 8.06305,-0.19666 3.49071,-0.12291 5.21148,-0.29499 5.89979,-0.29499 0.68831,0 7.47307,0.39332 8.25971,0.49165 0.78664,0.0983 1.03246,1.27829 2.75323,2.45825 1.72077,1.17996 2.21243,1.05704 4.12986,2.26158 1.91743,1.20454 2.6549,1.27829 3.53987,2.55658 0.88497,1.27829 0.27041,1.25371 0,2.55658 -0.27041,1.30287 0.29499,1.79452 -1.08163,2.6549 -1.37662,0.86039 -2.75323,0.9833 -4.42484,0.78664 -1.67161,-0.19666 -8.35804,-1.27829 -9.04635,-1.27829 -0.68831,0 -8.16137,-0.49165 -8.94801,-0.39332 -0.78664,0.0983 -5.11315,-0.19666 -5.50647,-0.19666 -0.39332,0 -2.28617,0.0492 -3.53988,-0.78664 -1.25371,-0.8358 -1.30287,-1.27828 -1.47495,-2.55657 -0.17208,-1.27829 0.78664,-2.06493 0.78664,-2.55658 0,-0.49165 -0.19666,-2.35991 -0.68831,-2.94989 -0.49165,-0.58998 1.10375,-2.51983 1.27829,-2.55658 z"
               style="fill:#000000;fill-opacity:1;fill-rule:evenodd;stroke:none;stroke-width:0.571278;stroke-linecap:butt;stroke-linejoin:miter;stroke-miterlimit:4;stroke-dasharray:none;stroke-opacity:1" /><path
               sodipodi:nodetypes="csssssssscc"
               transform="translate(68.03585,223.9898)"
               id="path2904"
               d="m -342.58118,485.73382 c 0.88496,-0.49165 -3.53987,-3.39238 -6.5881,-5.50647 -3.04823,-2.11409 -4.03153,-1.94201 -5.60481,-2.94989 -1.57328,-1.00788 -1.2537,0 -0.6883,-1.08163 0.5654,-1.08163 1.8191,-1.8191 2.94989,-3.24488 1.13079,-1.42578 -0.68831,-2.23701 1.57328,-2.45825 2.26159,-0.22124 1.17996,0.22125 7.47307,1.57328 6.29311,1.35204 9.6609,1.52411 17.69937,3.83486 8.03847,2.31075 14.06117,5.30981 14.45449,5.40814 0.39332,0.0983 11.2096,4.52318 11.2096,4.52318 z"
               style="fill:#000000;fill-opacity:1;fill-rule:evenodd;stroke:none;stroke-width:0.571278;stroke-linecap:butt;stroke-linejoin:miter;stroke-miterlimit:4;stroke-dasharray:none;stroke-opacity:1" /><path
               sodipodi:nodetypes="cssssssssssssssssss"
               transform="translate(68.03585,223.9898)"
               id="path2906"
               d="m -471.28324,330.30365 c -2.15266,8.96109 -2.35291,1.7772 -5.00619,1.90236 -2.65328,0.12516 -5.20644,-1.20149 -5.60694,-1.40174 -0.4005,-0.20024 -3.10384,-2.00247 -3.60446,-2.30285 -0.50062,-0.30037 -2.1026,-1.80223 -2.5031,-2.80347 -0.40049,-1.00123 -0.50062,-4.10508 -0.70087,-4.80594 -0.20024,-0.70087 -0.70086,-3.05378 -0.20024,-4.90607 0.50062,-1.85229 0.90111,-1.15142 2.20272,-2.5031 1.30161,-1.35167 1.85229,-1.40174 3.00372,-2.9036 1.15143,-1.50186 1.60198,-2.70334 1.60198,-3.10384 0,-0.40049 -0.90111,-5.10632 -1.00124,-5.60694 -0.10012,-0.50061 -0.70086,-2.30285 -0.90111,-3.20396 -0.20025,-0.90112 0.67583,-2.12763 2.20272,-2.80347 1.52689,-0.67584 2.72838,0.3254 3.90484,0.10012 1.17646,-0.22528 0.70086,-0.60074 0.80099,-1.00123 0.10012,-0.4005 0.57571,-1.20149 2.40297,-0.90112 1.82726,0.30037 3.1539,1.52689 4.90607,2.1026 1.75217,0.57571 2.47807,-8.33531 2.10261,0.20025 -0.37546,8.53556 -1.4518,24.98091 -3.60447,33.942 z"
               style="fill:#000000;fill-opacity:1;fill-rule:evenodd;stroke:none;stroke-width:0.571278;stroke-linecap:butt;stroke-linejoin:miter;stroke-miterlimit:4;stroke-dasharray:none;stroke-opacity:1" /><path
               sodipodi:nodetypes="csssssssssssssss"
               transform="translate(68.03585,223.9898)"
               id="path2908"
               d="m -448.45498,315.18494 c 0,-0.50061 -1.22652,-2.428 -0.90112,-4.50557 0.3254,-2.07757 0.70087,-1.97745 2.20273,-3.80471 1.50186,-1.82726 2.20272,-2.02751 3.8047,-3.50434 1.60198,-1.47683 1.2015,-1.90235 2.60323,-2.40297 1.40173,-0.50062 1.85229,-0.22527 3.00371,0.4005 1.15142,0.62577 1.02628,0.7259 1.60199,2.1026 0.57571,1.3767 0.85105,2.22776 0.70086,3.40421 -0.15019,1.17645 -1.00124,0.90112 -1.30161,1.30161 -0.30037,0.4005 -1.15143,1.70211 -1.30161,3.50434 -0.15018,1.80223 0.52565,2.02751 0.70087,3.70458 0.17522,1.67708 0.67584,1.95242 0,3.00372 -0.67584,1.0513 -1.90235,0.90111 -2.70335,1.20149 -0.80099,0.30037 -4.00495,0.90111 -4.6057,0.60074 -0.60074,-0.30037 -2.30285,-1.60198 -2.50309,-2.00248 -0.20025,-0.40049 -1.30161,-2.90359 -1.30161,-3.00372 z"
               style="fill:#000000;fill-opacity:1;fill-rule:evenodd;stroke:none;stroke-width:0.571278;stroke-linecap:butt;stroke-linejoin:miter;stroke-miterlimit:4;stroke-dasharray:none;stroke-opacity:1" /><path
               sodipodi:nodetypes="cssssssss"
               transform="translate(68.03585,223.9898)"
               id="path2910"
               d="m -446.55263,329.80304 c 1.42676,1.20149 1.80223,4.10508 1.40173,4.2052 -0.40049,0.10012 -0.80099,2.20273 -1.80223,2.30285 -1.00123,0.10012 -2.90359,0.40049 -3.40421,0.40049 -0.50062,0 -2.12764,0.25032 -3.00372,-0.50061 -0.87609,-0.75093 -0.60074,-1.50186 -0.50062,-2.5031 0.10013,-1.00124 0.4005,-2.70335 0.50062,-3.10384 0.10013,-0.4005 0.80099,-1.20149 2.5031,-1.40174 1.70211,-0.20025 2.87856,-0.60074 4.30533,0.60075 z"
               style="fill:#000000;fill-opacity:1;fill-rule:evenodd;stroke:none;stroke-width:0.571278;stroke-linecap:butt;stroke-linejoin:miter;stroke-miterlimit:4;stroke-dasharray:none;stroke-opacity:1" /><path
               sodipodi:nodetypes="csssssssssssss"
               transform="translate(68.03585,223.9898)"
               id="path2912"
               d="m -507.42797,368.25062 c 1.40173,4.13011 -0.87608,1.95241 -2.20272,3.50433 -1.32664,1.55192 -2.70335,2.70335 -3.10384,2.70335 -0.4005,0 -1.50186,0.60074 -2.20273,0.60074 -0.70087,0 -1.40174,0.17522 -2.5031,-0.60074 -1.10136,-0.77596 -1.30161,-1.50186 -1.90235,-2.5031 -0.60074,-1.00124 -1.50186,-2.70335 -2.00248,-3.40421 -0.50062,-0.70087 -1.90235,-2.20273 -2.30285,-2.9036 -0.4005,-0.70086 -0.60074,-1.80223 -0.4005,-2.70334 0.20025,-0.90112 1.40174,-1.90236 2.10261,-2.40298 0.70086,-0.50061 2.20272,-1.50185 2.80347,-2.00247 0.60074,-0.50062 1.60198,-0.90112 2.1026,-1.50186 0.50062,-0.60075 -0.60074,-4.6057 1.80223,-1.80223 2.40297,2.80347 6.40793,8.886 7.80966,13.01611 z"
               style="fill:#000000;fill-opacity:1;fill-rule:evenodd;stroke:none;stroke-width:0.571278;stroke-linecap:butt;stroke-linejoin:miter;stroke-miterlimit:4;stroke-dasharray:none;stroke-opacity:1" /><path
               sodipodi:nodetypes="csssssssssssssssssssssssssssssss"
               transform="translate(68.03585,223.9898)"
               id="path2914"
               d="m -444.95065,359.53984 c 1.71317,-0.85659 1.52689,1.3767 2.9036,2.40297 1.3767,1.02627 1.80223,1.00124 2.60322,1.70211 0.80099,0.70086 1.42676,2.32788 1.80223,4.2052 0.37547,1.87732 -0.30037,2.90359 -0.30037,3.30409 0,0.40049 0.70086,1.80223 1.60198,1.40173 0.90111,-0.40049 2.1026,-0.50062 2.20272,-1.20148 0.10013,-0.70087 1.40174,-2.9036 1.40174,-3.30409 0,-0.4005 0.20025,-1.80223 0.40049,-2.40298 0.20025,-0.60074 0.4005,-1.60198 1.00124,-2.20272 0.60075,-0.60075 1.30161,-1.80223 2.20273,-1.90236 0.90111,-0.10012 3.30409,0.20025 3.70458,0.20025 0.4005,0 1.60199,1.10136 1.70211,1.50186 0.10012,0.4005 0.4005,1.50186 0.50062,2.20273 0.10012,0.70086 0,2.00247 0,2.50309 0,0.50062 -1.00124,2.60323 -1.40173,2.80347 -0.4005,0.20025 -2.00248,1.90236 -2.70335,2.10261 -0.70087,0.20024 -1.00124,0.40049 -2.00248,0.70086 -1.00124,0.30037 -2.60322,1.20149 -3.10384,1.80223 -0.50062,0.60075 -0.6508,1.22652 -1.40173,2.40298 -0.75093,1.17646 -1.20149,1.90235 -1.60199,2.30285 -0.40049,0.40049 -1.40173,2.20272 -1.90235,2.40297 -0.50062,0.20025 -2.5031,0.30037 -3.30409,-0.10012 -0.80099,-0.4005 -0.60074,-0.60075 -1.50186,-1.20149 -0.90111,-0.60074 -1.7021,-1.40173 -2.80347,-1.40173 -1.10136,0 -2.1026,-0.20025 -3.40421,-0.20025 -1.30161,0 -1.70211,-0.4005 -3.10384,-0.50062 -1.40174,-0.10013 -1.67708,-0.12516 -2.5031,-0.20025 -0.82602,-0.0751 -0.60074,0.30037 -0.80099,-0.10012 -0.20025,-0.4005 0.22528,-3.50434 1.70211,-6.80843 1.47683,-3.30409 3.8047,-5.20644 4.2052,-6.40793 0.4005,-1.20149 3.81577,-5.9629 3.90483,-6.00743 z"
               style="fill:#000000;fill-opacity:1;fill-rule:evenodd;stroke:none;stroke-width:0.571278;stroke-linecap:butt;stroke-linejoin:miter;stroke-miterlimit:4;stroke-dasharray:none;stroke-opacity:1" /><path
               sodipodi:nodetypes="cscssss"
               transform="translate(68.03585,223.9898)"
               id="path2916"
               d="m -493.91124,357.83773 c 0.3204,-0.0801 4.73085,0.20025 9.81214,0.20025 5.08129,0 7.78463,0.60074 10.51301,-0.20025 1.82726,6.90855 -2.80346,27.93457 -3.20396,27.83445 -0.4005,-0.10013 -5.90731,-1.50186 -7.50929,-2.00248 -1.60199,-0.50062 -4.50558,0.50062 -4.6057,-1.60198 -0.10013,-2.10261 -5.0863,-24.20997 -5.0062,-24.22999 z"
               style="fill:#000000;fill-opacity:1;fill-rule:evenodd;stroke:none;stroke-width:0.571278;stroke-linecap:butt;stroke-linejoin:miter;stroke-miterlimit:4;stroke-dasharray:none;stroke-opacity:1" /><path
               sodipodi:nodetypes="csssssssss"
               transform="translate(68.03585,223.9898)"
               id="path2918"
               d="m -448.45498,382.66846 c 1.0127,0.0608 2.55316,-0.15018 3.90483,0.70087 1.35167,0.85105 1.3767,1.65204 1.50186,2.70334 0.12515,1.0513 -0.30038,1.00124 -1.00124,1.50186 -0.70087,0.50062 -1.80223,1.10136 -4.00496,1.00124 -2.20272,-0.10012 -2.12763,0.12515 -3.20396,-0.20025 -1.07633,-0.3254 -1.10137,-0.10012 -1.10137,-1.10136 0,-1.00124 -1.10136,-0.60074 0,-1.80223 1.10137,-1.20149 0.82602,-1.20149 1.80223,-1.90236 0.97621,-0.70087 0.61222,-0.99054 2.10261,-0.90111 z"
               style="fill:#000000;fill-opacity:1;fill-rule:evenodd;stroke:none;stroke-width:0.571278;stroke-linecap:butt;stroke-linejoin:miter;stroke-miterlimit:4;stroke-dasharray:none;stroke-opacity:1" /><path
               sodipodi:nodetypes="csssssssssssss"
               transform="translate(68.03585,223.9898)"
               id="path2920"
               d="m -412.61063,388.97626 c 1.67707,0.67584 2.12764,0.92616 3.70459,1.80224 1.57695,0.87609 1.7772,0.72589 2.60322,1.7021 0.82602,0.97621 1.15143,1.37671 0.70087,2.20273 -0.45056,0.82602 -1.70211,1.10136 -2.5031,1.10136 -0.80099,0 -2.70335,-0.20025 -3.50434,-0.30037 -0.80099,-0.10012 -3.8047,-0.10012 -4.2052,-0.30037 -0.4005,-0.20025 -1.60198,-0.70087 -2.70335,-1.00124 -1.10136,-0.30037 -2.20272,0.30037 -2.40297,-0.90112 -0.20025,-1.20148 -0.20025,-1.90235 -0.20025,-2.50309 0,-0.60075 -0.90111,-1.40174 0.4005,-2.00248 1.30161,-0.60075 1.90235,-1.20149 2.60322,-1.10137 0.70087,0.10013 1.1264,0.0751 2.5031,0.4005 1.3767,0.3254 1.32663,0.22527 3.00371,0.90111 z"
               style="fill:#000000;fill-opacity:1;fill-rule:evenodd;stroke:none;stroke-width:0.571278;stroke-linecap:butt;stroke-linejoin:miter;stroke-miterlimit:4;stroke-dasharray:none;stroke-opacity:1" /><path
               sodipodi:nodetypes="cssssssssssssssssss"
               transform="translate(68.03585,223.9898)"
               id="path2922"
               d="m -405.2923,308.0247 c 1.16415,-1.01171 2.07885,-2.18971 3.82508,-3.49246 1.74623,-1.30275 2.55006,-1.77395 3.15985,-1.71852 0.6098,0.0554 1.15029,0.62366 1.88482,1.27503 0.73453,0.65137 0.55437,0.41577 1.05329,1.33046 0.49892,0.91469 0.7761,1.20573 0.94241,2.32831 0.16631,1.12258 -0.0554,2.16201 -0.27718,2.16201 -0.22174,0 -1.60764,0.83153 -1.88482,0.94241 -0.27718,0.11087 -1.60765,2.162 -1.9957,2.27287 -0.38805,0.11087 -0.81768,0.2356 -1.60764,0.94241 -0.78996,0.70681 -1.33046,1.77395 -1.55221,1.88483 -0.22174,0.11087 -1.3859,1.33046 -1.82938,1.38589 -0.44349,0.0554 -0.99785,0.38806 -1.55221,0.0554 -0.55436,-0.33262 -0.66523,-0.27718 -1.21959,-1.05328 -0.55436,-0.77611 -0.27718,0.0554 -1.10872,-1.27503 -0.83154,-1.33046 -1.82939,-0.83154 -1.55221,-2.60549 0.27718,-1.77395 0.16631,-2.21744 0.83154,-2.7718 0.66523,-0.55436 1.33046,-0.69295 2.05113,-1.10872 0.72067,-0.41577 -0.33262,0.45735 0.83154,-0.55436 z"
               style="fill:#000000;fill-opacity:1;fill-rule:evenodd;stroke:none;stroke-width:0.571278;stroke-linecap:butt;stroke-linejoin:miter;stroke-miterlimit:4;stroke-dasharray:none;stroke-opacity:1" /><path
               sodipodi:nodetypes="cssssssssssssssssss"
               transform="translate(68.03585,223.9898)"
               id="path2924"
               d="m -444.68986,441.08727 c 0.79769,0.30681 6.42656,1.8162 7.05524,1.88605 0.62869,0.0699 3.21328,1.67649 3.84197,1.74635 0.62868,0.0698 5.51845,2.51474 6.07729,2.79415 0.55883,0.27942 1.8162,1.81621 2.16547,2.02577 0.34927,0.20956 0.78585,2.16546 0.69853,3.35298 -0.0873,1.18752 0,1.25737 -1.0478,1.39708 -1.04781,0.13971 -2.37504,1.06527 -3.70226,1.46693 -1.32723,0.40166 0.0699,-0.1397 -1.60664,0.13971 -1.67649,0.27942 -2.93386,0.48898 -3.98167,0.13971 -1.04781,-0.34927 -2.02576,-0.62869 -3.28313,-0.83825 -1.25737,-0.20956 -5.93758,-1.88605 -7.47437,-2.93386 -1.53679,-1.04781 -4.61036,-2.37503 -5.02948,-2.86401 -0.41912,-0.48898 -2.37503,-2.02576 -2.30518,-2.30518 0.0699,-0.27941 0.62869,-0.27941 1.46693,-1.25737 0.83825,-0.97795 1.60664,-1.60664 2.16547,-2.16547 0.55884,-0.55883 2.44489,-1.74635 2.44489,-2.02576 0,-0.27942 0.83825,-1.32723 1.46693,-1.25737 0.62869,0.0698 0.9374,0.65608 1.04781,0.69854 z"
               style="fill:#000000;fill-opacity:1;fill-rule:evenodd;stroke:none;stroke-width:0.571278;stroke-linecap:butt;stroke-linejoin:miter;stroke-miterlimit:4;stroke-dasharray:none;stroke-opacity:1" /><path
               sodipodi:nodetypes="csssssssssssssss"
               transform="translate(68.03585,223.9898)"
               id="path2926"
               d="m -406.96876,430.53933 c 1.1002,0.66361 2.93386,1.88605 2.93386,2.23532 0,0.34927 1.15259,0.9605 1.53679,2.02577 0.3842,1.06527 0.0699,1.27483 0,2.23532 -0.0699,0.96049 0.0698,1.67649 -0.27942,1.60664 -0.34927,-0.0699 -1.25737,0.20956 -1.88605,-0.27942 -0.62869,-0.48897 -1.32723,-0.83824 -1.74635,-1.32722 -0.41912,-0.48898 0.13971,-0.69854 -1.25737,-1.25737 -1.39708,-0.55883 -1.53678,-0.41912 -2.65445,-1.04781 -1.11766,-0.62868 -0.97795,-0.48897 -1.60664,-0.9081 -0.62868,-0.41912 -1.32722,-0.27941 -1.74634,-1.32722 -0.41913,-1.04781 -0.69854,-1.11766 -0.0699,-1.8162 0.62869,-0.69854 -0.9081,-0.9081 1.04781,-1.11767 1.95591,-0.20956 1.32723,-0.20956 2.16547,-0.20956 0.83825,0 1.20498,0.47152 2.09562,0.7684 0.89064,0.29688 0.36673,-0.24449 1.46693,0.41912 z"
               style="fill:#000000;fill-opacity:1;fill-rule:evenodd;stroke:none;stroke-width:0.571278;stroke-linecap:butt;stroke-linejoin:miter;stroke-miterlimit:4;stroke-dasharray:none;stroke-opacity:1" /><path
               sodipodi:nodetypes="csssssssssssssssss"
               transform="translate(68.03585,223.9898)"
               id="path2928"
               d="m -401.86943,465.117 c 0.57298,-1.30513 0.97796,-1.88605 1.04781,-2.30517 0.0699,-0.41913 0.69854,-1.46694 1.32723,-1.60664 0.62868,-0.13971 2.16547,0 2.93386,0.1397 0.76839,0.13971 2.23532,0.62869 2.65445,0.62869 0.41912,0 1.25737,0.34927 1.88605,0.62868 0.62869,0.27942 1.22244,1.06527 1.60664,1.88606 0.3842,0.82078 -0.15717,0.78586 -0.0699,1.39708 0.0873,0.61122 0.69854,0.9081 0.41912,1.04781 -0.27941,0.1397 -1.74635,0.34926 -2.02576,0.27941 -0.27942,-0.0699 -0.78586,-0.50644 -1.53679,-0.13971 -0.75093,0.36673 -0.76839,0.97795 -1.46693,1.60664 -0.69854,0.62869 -0.45405,0.47151 -1.32722,0.9081 -0.87317,0.43659 -0.69854,0.69854 -2.16547,0.83825 -1.46693,0.13971 -1.46693,0.0698 -2.37504,-0.20956 -0.9081,-0.27942 -1.25737,-0.55883 -1.74634,-1.04781 -0.48898,-0.48898 -0.62869,-0.69854 -0.62869,-1.18752 0,-0.48897 1.41123,-2.73713 1.46693,-2.86401 z"
               style="fill:#000000;fill-opacity:1;fill-rule:evenodd;stroke:none;stroke-width:0.571278;stroke-linecap:butt;stroke-linejoin:miter;stroke-miterlimit:4;stroke-dasharray:none;stroke-opacity:1" /><path
               sodipodi:nodetypes="cssssssssssssssssssssssssssssssss"
               transform="translate(68.03585,223.9898)"
               id="path2930"
               d="m -503.66473,298.95234 c 0.79475,-0.007 6.69888,0 7.49366,0 0.79478,0 4.65515,0.5677 5.10932,0 0.45416,-0.5677 1.24894,-1.02186 1.36248,-1.93018 0.11354,-0.90833 0.5677,-2.61143 0.22708,-3.06559 -0.34062,-0.45416 -2.38435,-2.38435 -2.61143,-3.51975 -0.22708,-1.1354 -1.24894,0.11354 -0.22708,-2.27081 1.02186,-2.38434 1.93019,-3.4062 3.06559,-5.22285 1.1354,-1.81664 0.79478,-0.45416 2.15727,-3.29267 1.36248,-2.8385 1.81664,-2.8385 2.2708,-4.20099 0.45416,-1.36248 0.90832,-1.81664 0.90832,-2.61142 0,-0.79479 -0.5677,-1.13541 0,-1.81665 0.56771,-0.68124 0.99348,-0.93671 2.38435,-0.68124 1.39087,0.25547 2.61143,1.7031 3.17913,1.7031 0.5677,0 1.78826,0.39739 3.06559,-0.22708 1.27733,-0.62447 0.90832,0.79478 2.04372,-2.2708 1.1354,-3.06559 0.82317,-2.12888 1.1354,-3.63329 0.31223,-1.50441 -1.58956,-1.13541 0.11354,-2.38435 1.70311,-1.24894 0.56771,-0.34062 1.81665,-1.36248 1.24894,-1.02186 2.15726,-2.04373 2.2708,-2.72497 0.11354,-0.68124 0.45417,-1.93018 0.45417,-3.06559 0,-1.1354 -0.11354,-1.81664 0,-3.17912 0.11354,-1.36249 0.11354,-2.61143 0.11354,-3.63329 0,-1.02187 0,-1.58957 -0.11354,-2.49789 -0.11354,-0.90832 -0.11354,-1.1354 -0.56771,-2.04373 -0.45416,-0.90832 -0.90832,-3.17912 -2.04372,-3.29266 -1.1354,-0.11354 -2.27081,-0.68125 -6.13118,0.45416 -3.86037,1.1354 -8.40198,5.56347 -9.3103,7.15304 -0.90832,1.58956 -9.53738,19.30184 -10.55925,22.02681 -1.02186,2.72497 -5.33639,8.7426 -5.79055,11.58111 -0.45416,2.83851 -3.40621,8.7426 -3.51975,10.33217 -0.11354,1.58956 -0.53932,4.3713 -0.11354,5.79055 0.42577,1.41925 -0.51098,-0.0924 1.81664,-0.11354 z"
               style="fill:#000000;fill-opacity:1;fill-rule:evenodd;stroke:none;stroke-width:0.571278;stroke-linecap:butt;stroke-linejoin:miter;stroke-miterlimit:4;stroke-dasharray:none;stroke-opacity:1" /><path
               sodipodi:nodetypes="cccccccc"
               id="path2932"
               transform="translate(68.03585,223.9898)"
               d="m -349.15625,136.375 c 0,0 -112.21924,243.5962 -112.65854,250.80072 -0.59531,8.82373 132.53354,-216.23822 132.53354,-216.23822 z m 0.4375,21.59375 3.46875,2.59375 -22.0625,37.15625 c 0,-2.16058 18.59375,-39.75 18.59375,-39.75 z"
               style="fill:#000000;fill-opacity:1;fill-rule:evenodd;stroke:none;stroke-width:0.571278;stroke-linecap:butt;stroke-linejoin:miter;stroke-miterlimit:4;stroke-dasharray:none;stroke-opacity:1" /><path
               sodipodi:nodetypes="cccc"
               transform="translate(68.03585,223.9898)"
               id="path2934"
               d="m -451.6396,404.4719 c -4.66064,1.39222 166.01079,-161.80477 166.01079,-161.80477 l 17.15815,26.23115 c 0,0 -177.5459,133.90428 -183.16894,135.57362 z"
               style="fill:#000000;fill-opacity:1;fill-rule:evenodd;stroke:none;stroke-width:0.571278;stroke-linecap:butt;stroke-linejoin:miter;stroke-miterlimit:4;stroke-dasharray:none;stroke-opacity:1" /><path
               sodipodi:nodetypes="cccccssssssc"
               id="path2936"
               transform="translate(68.03585,223.9898)"
               d="m -251.9375,293.65625 c 0,0 -148.77978,85.05949 -156.36869,91.35837 9.60328,-3.13187 163.77495,-73.01463 163.77494,-73.01462 z m -10.6875,13.53125 c 0.1768,-0.0179 0.39513,0.0564 0.8125,0.21875 1.66949,0.64923 3.49967,2.79894 3.46875,4.4375 -0.0309,1.63855 -0.68762,0.57885 -3.59375,2.09375 -2.90613,1.5149 -5.73846,4.47558 -8.03125,3.96875 -0.64424,-0.14241 -3.4554,-1.89837 -2.21875,-4.0625 1.23666,-2.16414 4.59054,-2.98611 7.1875,-4.59375 1.94771,-1.20572 1.84459,-2.00888 2.375,-2.0625 z"
               style="fill:#000000;fill-opacity:1;fill-rule:evenodd;stroke:none;stroke-width:0.571278;stroke-linecap:butt;stroke-linejoin:miter;stroke-miterlimit:4;stroke-dasharray:none;stroke-opacity:1" /><path
               sodipodi:nodetypes="cccc"
               transform="translate(68.03585,223.9898)"
               id="path2938"
               d="m -421.31329,401.68589 c 3.57041,-2.52515 201.79826,-47.53278 201.79826,-47.53278 l 11.66714,20.30946 c 0,0 -206.98477,27.22332 -213.4654,27.22332 z"
               style="fill:#000000;fill-opacity:1;fill-rule:evenodd;stroke:none;stroke-width:0.571278;stroke-linecap:butt;stroke-linejoin:miter;stroke-miterlimit:4;stroke-dasharray:none;stroke-opacity:1" /><path
               transform="translate(68.03585,223.9898)"
               id="path2940"
               d="m -367.73088,411.62456 177.59975,-9.07444 2.16058,13.82772 z"
               style="fill:#000000;fill-opacity:1;fill-rule:evenodd;stroke:none;stroke-width:0.571278;stroke-linecap:butt;stroke-linejoin:miter;stroke-miterlimit:4;stroke-dasharray:none;stroke-opacity:1" /><path
               sodipodi:nodetypes="ccccccccsc"
               id="path2942"
               transform="translate(68.03585,223.9898)"
               d="m -434.5,418.09375 c 5.9671,5.84951 272.03125,36.53124 272.03125,36.53125 l -5.1875,-24 c 0,0 -261.06553,-13.05351 -266.84375,-12.53125 z m 213.34375,19.96875 38.65625,1.375 0.75,1.8125 0.3125,2.125 c 1e-5,10e-6 0.29588,1.68335 -0.3125,1.53125 -0.60837,-0.15208 -39.40625,-6.69165 -39.40625,-6.84375 z"
               style="fill:#000000;fill-opacity:1;fill-rule:evenodd;stroke:none;stroke-width:0.571278;stroke-linecap:butt;stroke-linejoin:miter;stroke-miterlimit:4;stroke-dasharray:none;stroke-opacity:1" /><path
               sodipodi:nodetypes="cccc"
               transform="translate(68.03585,223.9898)"
               id="path2944"
               d="m -448.1045,439.28 c 8.90802,-0.41622 262.37413,51.44599 262.37413,51.44599 l -63.60778,-1.52093 c 0,0 -197.34208,-44.45538 -198.76635,-49.92506 z"
               style="fill:#000000;fill-opacity:1;fill-rule:evenodd;stroke:none;stroke-width:0.571278;stroke-linecap:butt;stroke-linejoin:miter;stroke-miterlimit:4;stroke-dasharray:none;stroke-opacity:1" /><path
               sodipodi:nodetypes="cccc"
               transform="translate(68.03585,223.9898)"
               id="path2946"
               d="m -458.9074,446.62597 c 5.49535,-1.56691 116.67137,42.34739 116.67137,42.34739 l -41.05104,1.72846 c 0,0 -74.3581,-41.13064 -75.62033,-44.07585 z"
               style="fill:#000000;fill-opacity:1;fill-rule:evenodd;stroke:none;stroke-width:0.571278;stroke-linecap:butt;stroke-linejoin:miter;stroke-miterlimit:4;stroke-dasharray:none;stroke-opacity:1" /><path
               sodipodi:nodetypes="cccc"
               transform="translate(68.03585,223.9898)"
               id="path2948"
               d="m -493.4767,382.24066 c 0,-1.47261 -27.22332,-58.7678 -27.22332,-58.7678 l -9.93867,9.93867 c 0,0 25.80188,51.41622 37.16199,48.82913 z"
               style="fill:#000000;fill-opacity:1;fill-rule:evenodd;stroke:none;stroke-width:0.571278;stroke-linecap:butt;stroke-linejoin:miter;stroke-miterlimit:4;stroke-dasharray:none;stroke-opacity:1" /><path
               sodipodi:nodetypes="cccc"
               transform="translate(68.03585,223.9898)"
               id="path2950"
               d="m -489.23621,383.73428 c -1.93292,-2.10864 -20.6609,-84.02781 -20.6609,-84.02781 l 4.75328,-19.01312 c 0,0 18.73,106.11988 15.90762,103.04093 z"
               style="fill:#000000;fill-opacity:1;fill-rule:evenodd;stroke:none;stroke-width:0.571278;stroke-linecap:butt;stroke-linejoin:miter;stroke-miterlimit:4;stroke-dasharray:none;stroke-opacity:1" /><path
               sodipodi:nodetypes="cccc"
               transform="translate(68.03585,223.9898)"
               id="path2952"
               d="m -477.05628,385.69759 c 3.14115,-5.98254 45.80432,-206.98366 45.80432,-206.98366 l -25.49486,13.3956 c 0,0 -22.15452,190.07366 -20.30946,193.58806 z"
               style="fill:#000000;fill-opacity:1;fill-rule:evenodd;stroke:none;stroke-width:0.571278;stroke-linecap:butt;stroke-linejoin:miter;stroke-miterlimit:4;stroke-dasharray:none;stroke-opacity:1" /><path
               transform="translate(68.03585,223.9898)"
               id="path2954"
               d="m -406.18922,333.41153 99.38672,-125.3137 7.77809,13.82772 z"
               style="fill:#000000;fill-opacity:1;fill-rule:evenodd;stroke:none;stroke-width:0.571278;stroke-linecap:butt;stroke-linejoin:miter;stroke-miterlimit:4;stroke-dasharray:none;stroke-opacity:1" /></g><path
             d="m 312.09375,12.03125 c -5.7,0 -11.00625,3.1 -13.90625,8 L 14.40625,511.625 c -2.9,4.99999 -2.9,11.1 0,16 2.9,4.99999 8.175,8 13.875,8 h 567.625 c 5.69998,-10e-6 10.975,-3.1 13.875,-8 2.90002,-5.00001 2.9,-11.1 0,-16 L 326,20.03125 c -2.9,-4.999999 -8.20625,-8 -13.90625,-8 z m 0,48.1875 256,443.3125 h -512 z"
             transform="translate(68.03585,223.9898)"
             id="path3902"
             style="stroke-width:0.64491" /></g><path
           style="fill:none;fill-rule:evenodd;stroke:#000000;stroke-width:0.264583px;stroke-linecap:butt;stroke-linejoin:miter;stroke-opacity:1"
           d="m 629.86366,678.88904 c 0.018,-0.0135 0,0.0449 0,0 z"
           id="path1965" /><g
           id="g1891"
           transform="matrix(0.41646567,0,0,0.41646567,550.31032,731.63349)"
           style="stroke-width:0.635306"><path
             id="path1877"
             d="M 299.09375,-8 C 285.2752,-7.992418 276.97358,5.3760798 271.875,16.53125 179.06241,177.95887 85.093615,338.77609 -7,500.5625 c -5.655568,16.18075 10.5954928,34.34286 27.3125,31.03037 189.5995,-0.27255 379.23688,0.62426 568.8125,-0.49912 16.59057,-3.16375 24.67537,-26.14951 13.37438,-38.92817 C 507.36358,328.05043 413.40661,163.19507 317.5,-0.4375 312.77524,-5.3226321 305.97101,-8.3168021 299.09375,-8 Z"
             style="fill:#ffff00;stroke-width:0.635306" /><g
             id="g4"
             style="stroke-width:0.635306"><path
               id="sign_border"
               d="M 597.6,499.6 313.8,8 C 310.9,3 305.6,0 299.9,0 294.2,0 288.9,3.1 286,8 L 2.2,499.6 c -2.9,5 -2.9,11.1 0,16 2.9,5 8.2,8 13.9,8 h 567.6 c 5.7,0 11,-3.1 13.9,-8 2.9,-5 2.9,-11.1 0,-16 z"
               style="stroke-width:0.635306" /><polygon
               points="299.9,48.2 555.9,491.5 43.9,491.5 "
               id="sign_bg"
               style="fill:#f7f619;stroke-width:0.635306" /></g><g
             id="g2863"
             style="stroke-width:0.635306"><path
               style="fill:#000000;fill-rule:evenodd;stroke:#000000;stroke-width:0.635306px;stroke-linecap:butt;stroke-linejoin:miter;stroke-opacity:1"
               d="m 290.0048,194.42098 c -11.70554,3.48002 -6.06367,69.5758 -11.71875,61.375 -0.9491,-4.11276 -14.23938,-21.83183 -22.78125,-20.25 0,0 12.03286,19.92074 -6,72.4375 0,0 -7.27481,-20.8518 -18.03125,-22.75 0,0 -2.23483,50.28287 -6.03125,62.9375 0,0 -1.55995,-2.85244 -12,-9.8125 -4.32427,22.95371 -11.72178,125.95772 65.46875,111.375 -12.97101,-5.69459 -36.35987,-26.89529 -40.15625,-63.59375 0,0 6.31281,2.85181 8.84375,4.75 0.80035,0.60026 6.65271,-31.00838 9.5,-35.4375 0,0 6.01771,47.14947 22.46875,55.375 0,0 -9.51449,-35.45553 -0.65625,-54.4375 0,0 9.17268,25.96522 15.5,28.8125 0,0 18.04219,-27.21196 12.03125,-66.125 0,0 26.88112,31.94909 13.59375,61.6875 -0.53212,1.19094 15.18783,-14.24356 17.71875,-25 0,0 6.96424,10.13982 2.21875,34.5 -0.24197,1.24212 7.59795,-3.18783 9.8125,-5.71875 0,0 0.94298,41.1472 -48.09375,62.34375 15.8472,13.47012 99.99033,0.9388 85.4375,-81 -3.60426,9.01064 -10.125,14.87499 -10.125,14.875 -1.8982,-17.7165 21.80896,-54.4259 -6.03125,-86.0625 0,0 -6.00837,20.57829 -10.4375,21.84375 0,0 -11.70168,-70.87499 -31,-70.875 0,0 0.31992,23.09795 -2.84375,25.3125 0,0 -15.51288,-47.44169 -24.6875,-49.65625 -4.9064,-3.85503 -12,-26.90625 -12,-26.90625 z m 8.53125,67.71875 c -0.31636,11.38918 1.26095,12.95812 -4.75,21.5 -0.54642,-4.84098 -0.65666,-21.66152 4.75,-21.5 z"
               id="path1933" /><rect
               style="fill:#000000;fill-opacity:1;stroke:#000000;stroke-width:0.405195;stroke-linecap:square;stroke-miterlimit:4;stroke-dasharray:none;stroke-dashoffset:0;stroke-opacity:0.4"
               id="rect1935"
               width="118.3209"
               height="6.6436872"
               x="235.58138"
               y="454.47574" /></g></g></g></g></g></svg>
