<?xml version="1.0" encoding="UTF-8" standalone="no"?>
<!-- Created with Inkscape (http://www.inkscape.org/) -->

<svg
   width="2048"
   height="1024"
   viewBox="0 0 2048 1024"
   version="1.1"
   id="svg5"
   xml:space="preserve"
   inkscape:version="1.2.2 (732a01da63, 2022-12-09)"
   sodipodi:docname="Sammelplatz_Decon_klein.svg"
   inkscape:export-filename="Sammelplatz_Decon.jpg"
   inkscape:export-xdpi="24"
   inkscape:export-ydpi="24"
   xmlns:inkscape="http://www.inkscape.org/namespaces/inkscape"
   xmlns:sodipodi="http://sodipodi.sourceforge.net/DTD/sodipodi-0.dtd"
   xmlns="http://www.w3.org/2000/svg"
   xmlns:svg="http://www.w3.org/2000/svg"><sodipodi:namedview
     id="namedview7"
     pagecolor="#012169"
     bordercolor="#000000"
     borderopacity="0.25"
     inkscape:showpageshadow="2"
     inkscape:pageopacity="1"
     inkscape:pagecheckerboard="0"
     inkscape:deskcolor="#d1d1d1"
     inkscape:document-units="mm"
     showgrid="false"
     inkscape:zoom="0.70710678"
     inkscape:cx="687.30779"
     inkscape:cy="431.33514"
     inkscape:window-width="3440"
     inkscape:window-height="1377"
     inkscape:window-x="2552"
     inkscape:window-y="-8"
     inkscape:window-maximized="1"
     inkscape:current-layer="layer1" /><defs
     id="defs2"><style
       id="style640">.cls-1{fill:#f9a800;}.cls-1,.cls-2{fill-rule:evenodd;}</style></defs><g
     inkscape:label="Ebene 1"
     inkscape:groupmode="layer"
     id="layer1"><path
       style="fill:#000000"
       d="M 9.8370761,123.50996 2065.786,130.06801"
       id="path245" /><text
       xml:space="preserve"
       style="font-size:120px;fill:#000000;stroke:#ffffff"
       x="1435.9993"
       y="-231.86211"
       id="text486"><tspan
         sodipodi:role="line"
         id="tspan484"
         x="1435.9993"
         y="-231.86211" /></text><g
       id="g1619"
       transform="translate(0,104.55579)"><g
         id="g2699"
         transform="matrix(0.77236335,0,0,0.77236335,1511.7917,205.23949)"
         style="stroke-width:1.29473"><path
           d="M 597.6,499.6 313.8,8 C 310.9,3 305.6,0 299.9,0 294.2,0 288.9,3.1 286,8 L 2.2,499.6 c -2.9,5 -2.9,11.1 0,16 2.9,5 8.2,8 13.9,8 h 567.6 c 5.7,0 11,-3.1 13.9,-8 2.9,-5 2.9,-11.1 0,-16 z"
           id="sign_border"
           style="stroke-width:1.29473" /><polygon
           points="555.875,491.5 43.875,491.5 299.875,48.2 "
           transform="matrix(1,0,0,0.99591458,0.125,2.0332437)"
           id="polygon7"
           style="overflow:visible;fill:#f6bd16;fill-opacity:1;stroke:none;stroke-width:1.29473" /><g
           transform="matrix(1.082139,0,0,1.082139,750.25733,-53.177561)"
           id="g2000"
           style="fill:#000000;stroke:none;stroke-width:1.29473"><path
             d="m -421.9375,249.1875 c -33.25375,2.97869 -59.375,30.91429 -59.375,64.9375 0,30.99453 21.6587,56.95954 50.65625,63.59375 -0.0898,-0.65761 -0.15625,-1.31785 -0.15625,-2 10e-6,-7.02897 4.94399,-12.90307 11.53125,-14.375 v -6.3125 c -25.70376,-1.66585 -46.0625,-23.06514 -46.0625,-49.1875 10e-6,-25.21621 18.97006,-46.0279 43.40625,-48.9375 z m 11.75,0 v 7.71875 c 24.43619,2.90959 43.40625,23.72128 43.40625,48.9375 -10e-6,26.12237 -20.35874,47.52165 -46.0625,49.1875 v 6.3125 c 6.58726,1.47193 11.5,7.34603 11.5,14.375 0,0.68105 -0.0354,1.3434 -0.125,2 28.98426,-6.63923 50.62501,-32.60408 50.625,-63.59375 0,-34.02319 -26.09309,-61.95881 -59.34375,-64.9375 z m -5.875,57.75 c -14.86221,0 -28.62464,4.72533 -39.875,12.75 1.29285,3.72538 3.11903,7.20554 5.34375,10.375 9.60274,-7.27578 21.56335,-11.59375 34.53125,-11.59375 12.96905,10e-6 24.92808,4.3168 34.53125,11.59375 2.21747,-3.16551 4.02166,-6.65543 5.3125,-10.375 -11.24854,-8.02039 -24.98589,-12.74999 -39.84375,-12.75 z"
             id="path2002"
             style="fill:#000000;fill-opacity:1;stroke:none;stroke-width:1.29473" /><path
             d="m -522.73985,444.09977 c 19.2065,27.30924 56.46005,35.96309 85.925,18.95149 26.84204,-15.49727 38.49904,-47.23675 29.74566,-75.66646 -0.52459,0.40661 -1.06317,0.79425 -1.65393,1.13532 -6.08727,3.51448 -13.64638,2.16992 -18.21473,-2.79885 l -5.46679,3.15625 c 11.40922,23.09302 3.05627,51.42385 -19.56635,64.48503 -21.83787,12.60809 -49.34634,6.5854 -64.08422,-13.12215 z m -5.875,-10.17579 6.68464,-3.85938 c -9.69832,-22.61714 -1.15991,-49.45153 20.67797,-62.05964 22.62263,-13.06118 51.33431,-6.12965 65.62885,15.29752 l 5.46679,-3.15625 c -2.01891,-6.44069 0.61184,-13.6323 6.69911,-17.14678 0.5898,-0.34053 1.18113,-0.64101 1.79455,-0.89175 -20.24187,-21.78148 -53.54846,-27.54049 -80.38628,-12.04564 -29.46493,17.01159 -40.61134,53.57667 -26.56563,83.86192 z m 52.95045,-23.7871 c 7.4311,12.87104 18.40457,22.42699 30.97932,28.15774 2.57984,-2.98233 4.68066,-6.30392 6.31313,-9.81532 -11.10238,-4.67832 -20.82215,-12.87752 -27.3061,-24.10805 -6.48452,-11.23152 -8.72558,-23.74674 -7.22515,-35.7018 -3.85014,-0.33763 -7.7746,-0.15514 -11.64126,0.58674 -1.32159,13.75171 1.45114,28.0134 8.88006,40.88069 z"
             id="path2004"
             style="fill:#000000;fill-opacity:1;stroke:none;stroke-width:1.29473" /><path
             d="m -303.55075,434.00543 c 14.04725,-30.28793 2.91495,-66.87738 -26.55,-83.88899 -26.84204,-15.49726 -60.15774,-9.72279 -80.40191,12.07271 0.61443,0.251 1.21942,0.5236 1.81018,0.86468 6.08726,3.51449 8.70239,10.73315 6.68348,17.17385 l 5.46679,3.15625 c 14.29454,-21.42717 43.00623,-28.35871 65.62885,-15.29753 21.83786,12.60812 30.37628,39.4425 20.67797,62.05965 z m -5.875,10.17579 -6.68464,-3.85937 c -14.73787,19.70755 -42.24634,25.73025 -64.08422,13.12214 -22.62262,-13.06119 -30.97557,-41.392 -19.56635,-64.48502 l -5.46679,-3.15625 c -4.56835,4.96876 -12.11184,6.28627 -18.19911,2.77178 -0.5898,-0.34052 -1.14569,-0.70239 -1.66955,-1.10825 -8.74239,28.42071 2.92345,60.14457 29.76128,75.63939 29.46493,17.0116 66.70443,8.38214 85.90938,-18.92442 z m -47.07545,-33.9629 c 7.43111,-12.87104 10.22007,-27.15232 8.89568,-40.90774 -3.87269,-0.74305 -7.79969,-0.90162 -11.65688,-0.55968 1.49964,11.9541 -0.7412,24.47127 -7.22515,35.7018 -6.48453,11.23151 -16.2025,19.42994 -27.3061,24.10805 1.63267,3.50314 3.75294,6.81057 6.32876,9.78826 12.57013,-5.73132 23.53475,-15.26341 30.96369,-28.13069 z"
             id="path2006"
             style="fill:#000000;fill-opacity:1;stroke:none;stroke-width:1.29473" /></g></g><g
         transform="matrix(0.71238978,0,0,0.71238978,-2.9881679,30.590021)"
         id="g4180"
         style="stroke-width:1.39403"><circle
           cx="396"
           cy="529"
           r="285"
           style="fill:#ffffff;stroke:#000000;stroke-width:1.39403"
           id="circle4155" /><circle
           cx="396"
           cy="529"
           r="281"
           style="fill:#004488;stroke:none;stroke-width:1.39403"
           id="circle4157" /><g
           transform="matrix(1.0312,0,0,1.0312,675.23,-24.585)"
           id="g3264"
           style="fill:#ffffff;fill-rule:evenodd;stroke:none;stroke-width:1.39403"><path
             d="m -364.71,547.58 c -3.2,0.68 -7.08,3.38 -13.02,-7.74 -8.85,-16.57 -19.01,-60.2 -19.01,-60.2 0,0 -1.17,-10.14 6.33,-12.32 5.79,-1.69 9.51,-2.53 15.84,2.46 -7.21,-34.67 -25.7,-70.41 2.12,-88.36 l 16.89,-21.47 50.7,-20.07 c 0,0 17.25,-17.95 21.12,-17.95 0,0 54.57,7.74 69.35,14.78 l 62.31,73.58 -17.25,58.79 c 0,0 9.94,-9 19.72,1.05 3.35,3.45 2.97,7.41 0.35,14.79 -6.04,16.99 -10.8,34.25 -17.6,55.27 -1.89,5.83 -5.55,6.34 -11.97,6.34 v -5.64 l 5.98,-3.87 c 0,0 13.12,-41.31 17.6,-57.03 1.99,-6.97 0.01,-11.06 -11.26,-6.34 -4.82,2.02 -10.21,6.69 -10.21,6.69 0,0 13.82,-65.76 12.81,-73.36 0,0 -44.57,-49.7 -65.97,-50.2 l 4.23,9.15 c -3.88,-1.68 -19.32,-10.74 -26.05,-10.91 0,0 15.33,13.5 15.84,16.19 -15.84,-0.55 -52.29,-9.34 -68.3,-21.47 0,0 -22.18,22.69 -22.18,26.4 0,0 -20.55,-0.63 -31.33,4.93 0,0 -13.59,17.61 -14.43,25.7 0,0 -0.83,59.07 4.22,73.22 0,0 -6.93,-3.54 -11.61,-6.34 -5.46,-3.25 -11.27,-3.43 -10.21,5.99 1.72,15.4 12,39.46 17.25,55.62 2.07,6.39 2.11,5.57 7.39,5.99 z"
             id="path4159"
             style="stroke-width:1.39403" /><g
             id="g4177"
             style="stroke-width:1.39403"><path
               d="m -272.13,651.13 c -40.93,0 -74.16,22.48 -74.16,50.16 0,27.68 33.23,50.16 74.16,50.16 40.93,0 74.12,-22.48 74.12,-50.16 0,-27.68 -33.19,-50.16 -74.12,-50.16 z m 0.4,7.16 c 4.79,0 8.66,1.48 8.66,3.31 0,1.84 -3.87,3.31 -8.66,3.31 -4.78,0 -8.68,-1.47 -8.68,-3.31 0,-1.83 3.9,-3.31 8.68,-3.31 z m -22.18,2.81 c 4.78,0 8.68,1.48 8.68,3.31 0,1.84 -3.9,3.35 -8.68,3.35 -4.79,0 -8.66,-1.51 -8.66,-3.35 0,-1.83 3.87,-3.31 8.66,-3.31 z m 44.34,0 c 4.78,0 8.66,1.48 8.66,3.31 0,1.84 -3.88,3.35 -8.66,3.35 -4.78,0 -8.66,-1.51 -8.66,-3.35 0,-1.83 3.88,-3.31 8.66,-3.31 z m -63.47,8.85 c 4.78,0 8.66,1.5 8.66,3.34 0,1.83 -3.88,3.31 -8.66,3.31 -4.78,0 -8.66,-1.48 -8.66,-3.31 0,-1.84 3.88,-3.34 8.66,-3.34 z m 82.59,0 c 4.79,0 8.69,1.5 8.69,3.34 0,1.83 -3.9,3.31 -8.69,3.31 -4.78,0 -8.65,-1.48 -8.65,-3.31 0,-1.84 3.87,-3.34 8.65,-3.34 z m -41.28,7.65 c 4.79,0 8.66,1.51 8.66,3.35 0,1.83 -3.87,3.31 -8.66,3.31 -4.78,0 -8.68,-1.48 -8.68,-3.31 0,-1.84 3.9,-3.35 8.68,-3.35 z m -53,5.47 c 4.79,0 8.66,1.48 8.66,3.31 0,1.84 -3.87,3.32 -8.66,3.32 -4.78,0 -8.65,-1.48 -8.65,-3.32 0,-1.83 3.87,-3.31 8.65,-3.31 z m 105.97,0 c 4.78,0 8.69,1.48 8.69,3.31 0,1.84 -3.91,3.32 -8.69,3.32 -4.78,0 -8.65,-1.48 -8.65,-3.32 0,-1.83 3.87,-3.31 8.65,-3.31 z m -73.72,0.38 c 4.79,0 8.66,1.5 8.66,3.34 0,1.83 -3.87,3.31 -8.66,3.31 -4.78,0 -8.68,-1.48 -8.68,-3.31 0,-1.84 3.9,-3.34 8.68,-3.34 z m 41.5,0 c 4.79,0 8.66,1.5 8.66,3.34 0,1.83 -3.87,3.31 -8.66,3.31 -4.78,0 -8.68,-1.48 -8.68,-3.31 0,-1.84 3.9,-3.34 8.68,-3.34 z m -78.75,14.71 c 4.79,0 8.66,1.51 8.66,3.35 0,1.83 -3.87,3.31 -8.66,3.31 -4.78,0 -8.68,-1.48 -8.68,-3.31 0,-1.84 3.9,-3.35 8.68,-3.35 z m 28,0 c 4.79,0 8.66,1.51 8.66,3.35 0,1.83 -3.87,3.31 -8.66,3.31 -4.78,0 -8.68,-1.48 -8.68,-3.31 0,-1.84 3.9,-3.35 8.68,-3.35 z m 60,0 c 4.79,0 8.66,1.51 8.66,3.35 0,1.83 -3.87,3.31 -8.66,3.31 -4.78,0 -8.68,-1.48 -8.68,-3.31 0,-1.84 3.9,-3.35 8.68,-3.35 z m 26,0 c 4.79,0 8.66,1.51 8.66,3.35 0,1.83 -3.87,3.31 -8.66,3.31 -4.78,0 -8.68,-1.48 -8.68,-3.31 0,-1.84 3.9,-3.35 8.68,-3.35 z m -56,0.13 c 4.79,0 8.66,1.48 8.66,3.31 0,1.84 -3.87,3.31 -8.66,3.31 -4.78,0 -8.68,-1.47 -8.68,-3.31 0,-1.83 3.9,-3.31 8.68,-3.31 z m 20.35,12.06 c 4.78,0 8.65,1.51 8.65,3.35 0,1.83 -3.87,3.31 -8.65,3.31 -4.79,0 -8.66,-1.48 -8.66,-3.31 0,-1.84 3.87,-3.35 8.66,-3.35 z m -39.69,0.41 c 4.78,0 8.66,1.51 8.66,3.34 0,1.84 -3.88,3.31 -8.66,3.31 -4.78,0 -8.69,-1.47 -8.69,-3.31 0,-1.83 3.91,-3.34 8.69,-3.34 z m 69.72,2.03 c 4.78,0 8.65,1.48 8.65,3.31 0,1.84 -3.87,3.35 -8.65,3.35 -4.78,0 -8.69,-1.51 -8.69,-3.35 0,-1.83 3.91,-3.31 8.69,-3.31 z m -104.6,0.41 c 4.79,0 8.66,1.47 8.66,3.31 0,1.83 -3.87,3.31 -8.66,3.31 -4.78,0 -8.65,-1.48 -8.65,-3.31 0,-1.84 3.87,-3.31 8.65,-3.31 z m 54.22,5.62 c 4.79,0 8.66,1.51 8.66,3.34 0,1.84 -3.87,3.32 -8.66,3.32 -4.78,0 -8.68,-1.48 -8.68,-3.32 0,-1.83 3.9,-3.34 8.68,-3.34 z m 38.47,6.84 c 4.78,0 8.66,1.51 8.66,3.35 0,1.83 -3.88,3.31 -8.66,3.31 -4.78,0 -8.65,-1.48 -8.65,-3.31 0,-1.84 3.87,-3.35 8.65,-3.35 z m -78.78,0.41 c 4.78,0 8.66,1.51 8.66,3.34 0,1.84 -3.88,3.32 -8.66,3.32 -4.78,0 -8.66,-1.48 -8.66,-3.32 0,-1.83 3.88,-3.34 8.66,-3.34 z m 62.47,8.28 c 4.78,0 8.66,1.48 8.66,3.31 0,1.84 -3.88,3.32 -8.66,3.32 -4.78,0 -8.66,-1.48 -8.66,-3.32 0,-1.83 3.88,-3.31 8.66,-3.31 z m -43.31,0.41 c 4.78,0 8.65,1.48 8.65,3.31 0,1.84 -3.87,3.31 -8.65,3.31 -4.79,0 -8.69,-1.47 -8.69,-3.31 0,-1.83 3.9,-3.31 8.69,-3.31 z m 21.15,3.4 c 4.79,0 8.66,1.51 8.66,3.35 0,1.83 -3.87,3.31 -8.66,3.31 -4.78,0 -8.68,-1.48 -8.68,-3.31 0,-1.84 3.9,-3.35 8.68,-3.35 z"
               id="path4161"
               style="stroke-width:1.39403" /><path
               transform="translate(107.73,241.82)"
               d="m -382.97,186.16 v 0.37 c -28.66,1.46 -57.78,0.67 -69.69,4.75 -11.41,3.92 -9.31,19.04 -12.78,38.88 -6.68,38.18 -13.78,46.09 -1.81,88.65 2.13,7.58 4.6,21.83 12.38,35.25 7.77,13.42 20.86,26.01 32.25,32.75 0,0 6.94,-10.34 42.75,-11.03 35.82,0.69 42.75,11.03 42.75,11.03 11.38,-6.74 24.47,-19.33 32.25,-32.75 7.77,-13.42 10.24,-27.67 12.37,-35.25 11.97,-42.56 4.87,-50.47 -1.81,-88.65 -3.47,-19.84 -1.37,-34.96 -12.78,-38.88 -11.91,-4.08 -41.03,-3.29 -69.69,-4.75 v -0.37 c -1.03,0.06 -2.06,0.13 -3.09,0.18 -1.04,-0.05 -2.07,-0.12 -3.1,-0.18 z m -43.53,18.37 c 7.77,-0.2 15.57,2.05 21.66,6.97 19.44,16.25 21.78,48.54 5.28,67.66 -10.17,13.07 -31.31,15.84 -44.13,5.09 -19.83,-13.74 -25.76,-44.35 -11.28,-63.97 5.82,-9.96 17.12,-15.46 28.47,-15.75 z m 91.81,0 c 0.49,-0.01 0.95,-0.01 1.44,0 11.35,0.29 22.65,5.79 28.47,15.75 14.48,19.62 8.55,50.23 -11.28,63.97 -12.82,10.75 -33.96,7.98 -44.13,-5.09 -16.5,-19.12 -14.16,-51.41 5.28,-67.66 5.71,-4.61 12.94,-6.87 20.22,-6.97 z"
               id="path4163"
               style="stroke-width:1.39403" /><path
               d="m -317.55,452.32 c -0.61,0 -1.23,0.02 -1.85,0.06 -20.25,0.4 -33.12,23.21 -29.4,41.6 2.35,17.39 17.71,35.25 36.4,32.43 16.81,-2.98 26.43,-21.43 25.56,-37.5 -0.08,-17.24 -11.87,-36.67 -30.71,-36.59 z m 0.59,3.97 c 12.71,0.06 21.89,13.06 23.97,25.34 3.28,15.49 -3.7,35.69 -19.78,39.53 -15.36,2.57 -27.88,-12.75 -30.32,-27.46 -3.55,-16.53 7.44,-37.41 24.88,-37.38 0.42,-0.03 0.84,-0.03 1.25,-0.03 z"
               id="path4165"
               style="stroke-width:1.39403" /><path
               d="m -317.91,462.31 c -13.76,0.46 -21.64,16.5 -19.62,28.85 1.54,11.8 10.69,25.69 23.94,24 14.65,-5.23 18.39,-24.49 13.28,-37.85 -2.75,-7.45 -8.91,-15.47 -17.6,-15 z"
               id="path4167"
               style="stroke-width:1.39403" /><path
               d="m -226.73,452.32 c 0.61,0 1.22,0.02 1.84,0.06 20.26,0.4 33.13,23.21 29.41,41.6 -2.35,17.39 -17.71,35.25 -36.41,32.43 -16.8,-2.98 -26.42,-21.43 -25.56,-37.5 0.08,-17.24 11.88,-36.67 30.72,-36.59 z m -0.59,3.97 c -12.71,0.06 -21.89,13.06 -23.97,25.34 -3.29,15.49 3.69,35.69 19.78,39.53 15.36,2.57 27.87,-12.75 30.31,-27.46 3.56,-16.53 -7.44,-37.41 -24.87,-37.38 -0.42,-0.03 -0.84,-0.03 -1.25,-0.03 z"
               id="path4169"
               style="stroke-width:1.39403" /><path
               d="m -226.38,462.31 c 13.76,0.46 21.64,16.5 19.63,28.85 -1.54,11.8 -10.69,25.69 -23.94,24 -14.65,-5.23 -18.4,-24.49 -13.28,-37.85 2.74,-7.45 8.9,-15.47 17.59,-15 z"
               id="path4171"
               style="stroke-width:1.39403" /><path
               d="m -275.09,641.23 c -46.27,0.16 -64.02,23.42 -70.06,43.09 18.48,-29.18 49.98,-36.01 72.85,-36.34 0.1,0 0.2,-0.01 0.31,0 22.86,0.33 54.36,7.16 72.84,36.34 -6.12,-19.93 -25.93,-43.54 -74,-43.06 -0.64,-0.01 -1.3,-0.04 -1.94,-0.03 z"
               id="path4173"
               style="stroke-width:1.39403" /><path
               d="m -269.74,623.79 c -1.7,0.01 -3.47,0.05 -5.25,0.12 -9.28,-0.04 -17.29,0.8 -24.22,2.38 -0.38,0.05 -0.74,0.1 -1.13,0.16 l -0.03,0.09 c -21.15,5.16 -31.9,17.7 -37.22,35.09 10.85,-10.27 22.67,-16.61 34.29,-20.31 l -0.04,0.16 c 6.23,-1.97 17.48,-4.56 31.04,-4.69 0.1,0 0.2,0 0.31,0 13.55,0.13 24.8,2.72 31.03,4.69 l -0.03,-0.16 c 11.62,3.7 23.42,10.03 34.28,20.31 -7.15,-23.38 -24.12,-38.1 -63.03,-37.84 z"
               id="path4175"
               style="stroke-width:1.39403" /></g></g></g><text
         xml:space="preserve"
         style="font-size:106.667px;text-align:center;text-anchor:middle;fill:#000000;stroke:#ffffff;stroke-width:0;stroke-dasharray:none"
         x="1024.0045"
         y="361.35059"
         id="text4773"><tspan
           sodipodi:role="line"
           id="tspan4771"
           x="1024.0045"
           y="361.35059"
           style="font-size:106.667px;fill:#ffffff;stroke:#ffffff">Dekontaminations-</tspan><tspan
           sodipodi:role="line"
           x="1024.0045"
           y="494.68433"
           id="tspan4775"
           style="font-size:106.667px;fill:#ffffff;stroke:#ffffff">sammelplatz</tspan></text></g></g></svg>
