<?xml version="1.0" encoding="UTF-8" standalone="no"?>
<svg
   width="2048mm"
   height="1024mm"
   viewBox="0 0 2048 1024"
   version="1.1"
   id="svg8"
   inkscape:version="1.2.2 (732a01da63, 2022-12-09)"
   sodipodi:docname="Sammelplatz_Decon_gross.svg"
   inkscape:export-filename="Sammelplatz_Decon_Gross.jpg"
   inkscape:export-xdpi="25.4"
   inkscape:export-ydpi="25.4"
   xml:space="preserve"
   xmlns:inkscape="http://www.inkscape.org/namespaces/inkscape"
   xmlns:sodipodi="http://sodipodi.sourceforge.net/DTD/sodipodi-0.dtd"
   xmlns="http://www.w3.org/2000/svg"
   xmlns:svg="http://www.w3.org/2000/svg"
   xmlns:rdf="http://www.w3.org/1999/02/22-rdf-syntax-ns#"
   xmlns:cc="http://creativecommons.org/ns#"
   xmlns:dc="http://purl.org/dc/elements/1.1/"><defs
     id="defs2"><clipPath
       id="d-96"><circle
         cy="-15"
         r="9.5"
         id="circle848" /><circle
         transform="rotate(120)"
         cy="-15"
         r="9.5"
         id="circle850" /><circle
         transform="rotate(240)"
         cy="-15"
         r="9.5"
         id="circle852" /></clipPath><mask
       id="b"
       maskUnits="userSpaceOnUse"
       x="-30"
       y="-30"
       width="60"
       height="60"><path
         d="m-27-27h54v54h-54z"
         fill="#fff"
         id="path855" /><path
         d="m2-23v-4h-4v4m1.5 17v4h1v-4"
         id="path857" /><circle
         cy="-15"
         r="10.5"
         id="circle859" /><g
         transform="rotate(120)"
         id="g865"><path
           d="m2-23v-4h-4v4m1.5 17v4h1v-4"
           id="path861" /><circle
           cy="-15"
           r="10.5"
           id="circle863" /></g><g
         transform="rotate(240)"
         id="g871"><path
           d="m2-23v-4h-4v4m1.5 17v4h1v-4"
           id="path867" /><circle
           cy="-15"
           r="10.5"
           id="circle869" /></g><circle
         r="3"
         id="circle873" /></mask></defs><sodipodi:namedview
     id="base"
     pagecolor="#012169"
     bordercolor="#666666"
     borderopacity="1.0"
     inkscape:pageopacity="1"
     inkscape:pageshadow="2"
     inkscape:zoom="0.1725398"
     inkscape:cx="4158.4609"
     inkscape:cy="2952.9419"
     inkscape:document-units="px"
     inkscape:current-layer="g20468"
     inkscape:document-rotation="0"
     showgrid="false"
     inkscape:window-width="2560"
     inkscape:window-height="1361"
     inkscape:window-x="2391"
     inkscape:window-y="-9"
     inkscape:window-maximized="1"
     inkscape:showpageshadow="2"
     inkscape:pagecheckerboard="0"
     inkscape:deskcolor="#e1e1e1" /><metadata
     id="metadata5"><rdf:RDF><cc:Work
         rdf:about=""><dc:format>image/svg+xml</dc:format><dc:type
           rdf:resource="http://purl.org/dc/dcmitype/StillImage" /></cc:Work></rdf:RDF></metadata><g
     inkscape:label="Ebene 1"
     inkscape:groupmode="layer"
     id="layer1"><g
       id="g20468"
       transform="translate(0,11.292244)"><text
         xml:space="preserve"
         style="font-size:129.16px;text-align:center;text-anchor:middle;fill:#000000;stroke:#ffffff;stroke-width:0;stroke-dasharray:none"
         x="1038.786"
         y="192.73593"
         id="text4773"
         transform="scale(0.99950184,1.0004984)"><tspan
           sodipodi:role="line"
           x="1038.786"
           y="192.73593"
           id="tspan4775"
           style="font-size:129.16px;fill:#ffffff;stroke:#ffffff;stroke-width:0">Dekontaminations-</tspan><tspan
           sodipodi:role="line"
           x="1038.786"
           y="354.18594"
           style="font-size:129.16px;fill:#ffffff;stroke:#ffffff;stroke-width:0"
           id="tspan5681">sammelplatz</tspan></text><g
         id="g20426"
         transform="translate(0,35.98335)"><g
           transform="matrix(0.70902926,0,0,0.70973614,454.99637,292.92372)"
           id="g4180"
           style="stroke-width:0.3704"><circle
             cx="396"
             cy="529"
             r="285"
             style="fill:#ffffff;stroke:#000000;stroke-width:0.3704"
             id="circle4155" /><circle
             cx="396"
             cy="529"
             r="281"
             style="fill:#004488;stroke:none;stroke-width:0.3704"
             id="circle4157" /><g
             transform="matrix(1.0312,0,0,1.0312,675.23,-24.585)"
             id="g3264"
             style="fill:#ffffff;fill-rule:evenodd;stroke:none;stroke-width:0.3704"><path
               d="m -364.71,547.58 c -3.2,0.68 -7.08,3.38 -13.02,-7.74 -8.85,-16.57 -19.01,-60.2 -19.01,-60.2 0,0 -1.17,-10.14 6.33,-12.32 5.79,-1.69 9.51,-2.53 15.84,2.46 -7.21,-34.67 -25.7,-70.41 2.12,-88.36 l 16.89,-21.47 50.7,-20.07 c 0,0 17.25,-17.95 21.12,-17.95 0,0 54.57,7.74 69.35,14.78 l 62.31,73.58 -17.25,58.79 c 0,0 9.94,-9 19.72,1.05 3.35,3.45 2.97,7.41 0.35,14.79 -6.04,16.99 -10.8,34.25 -17.6,55.27 -1.89,5.83 -5.55,6.34 -11.97,6.34 v -5.64 l 5.98,-3.87 c 0,0 13.12,-41.31 17.6,-57.03 1.99,-6.97 0.01,-11.06 -11.26,-6.34 -4.82,2.02 -10.21,6.69 -10.21,6.69 0,0 13.82,-65.76 12.81,-73.36 0,0 -44.57,-49.7 -65.97,-50.2 l 4.23,9.15 c -3.88,-1.68 -19.32,-10.74 -26.05,-10.91 0,0 15.33,13.5 15.84,16.19 -15.84,-0.55 -52.29,-9.34 -68.3,-21.47 0,0 -22.18,22.69 -22.18,26.4 0,0 -20.55,-0.63 -31.33,4.93 0,0 -13.59,17.61 -14.43,25.7 0,0 -0.83,59.07 4.22,73.22 0,0 -6.93,-3.54 -11.61,-6.34 -5.46,-3.25 -11.27,-3.43 -10.21,5.99 1.72,15.4 12,39.46 17.25,55.62 2.07,6.39 2.11,5.57 7.39,5.99 z"
               id="path4159"
               style="stroke-width:0.3704" /><g
               id="g4177"
               style="stroke-width:0.3704"><path
                 d="m -272.13,651.13 c -40.93,0 -74.16,22.48 -74.16,50.16 0,27.68 33.23,50.16 74.16,50.16 40.93,0 74.12,-22.48 74.12,-50.16 0,-27.68 -33.19,-50.16 -74.12,-50.16 z m 0.4,7.16 c 4.79,0 8.66,1.48 8.66,3.31 0,1.84 -3.87,3.31 -8.66,3.31 -4.78,0 -8.68,-1.47 -8.68,-3.31 0,-1.83 3.9,-3.31 8.68,-3.31 z m -22.18,2.81 c 4.78,0 8.68,1.48 8.68,3.31 0,1.84 -3.9,3.35 -8.68,3.35 -4.79,0 -8.66,-1.51 -8.66,-3.35 0,-1.83 3.87,-3.31 8.66,-3.31 z m 44.34,0 c 4.78,0 8.66,1.48 8.66,3.31 0,1.84 -3.88,3.35 -8.66,3.35 -4.78,0 -8.66,-1.51 -8.66,-3.35 0,-1.83 3.88,-3.31 8.66,-3.31 z m -63.47,8.85 c 4.78,0 8.66,1.5 8.66,3.34 0,1.83 -3.88,3.31 -8.66,3.31 -4.78,0 -8.66,-1.48 -8.66,-3.31 0,-1.84 3.88,-3.34 8.66,-3.34 z m 82.59,0 c 4.79,0 8.69,1.5 8.69,3.34 0,1.83 -3.9,3.31 -8.69,3.31 -4.78,0 -8.65,-1.48 -8.65,-3.31 0,-1.84 3.87,-3.34 8.65,-3.34 z m -41.28,7.65 c 4.79,0 8.66,1.51 8.66,3.35 0,1.83 -3.87,3.31 -8.66,3.31 -4.78,0 -8.68,-1.48 -8.68,-3.31 0,-1.84 3.9,-3.35 8.68,-3.35 z m -53,5.47 c 4.79,0 8.66,1.48 8.66,3.31 0,1.84 -3.87,3.32 -8.66,3.32 -4.78,0 -8.65,-1.48 -8.65,-3.32 0,-1.83 3.87,-3.31 8.65,-3.31 z m 105.97,0 c 4.78,0 8.69,1.48 8.69,3.31 0,1.84 -3.91,3.32 -8.69,3.32 -4.78,0 -8.65,-1.48 -8.65,-3.32 0,-1.83 3.87,-3.31 8.65,-3.31 z m -73.72,0.38 c 4.79,0 8.66,1.5 8.66,3.34 0,1.83 -3.87,3.31 -8.66,3.31 -4.78,0 -8.68,-1.48 -8.68,-3.31 0,-1.84 3.9,-3.34 8.68,-3.34 z m 41.5,0 c 4.79,0 8.66,1.5 8.66,3.34 0,1.83 -3.87,3.31 -8.66,3.31 -4.78,0 -8.68,-1.48 -8.68,-3.31 0,-1.84 3.9,-3.34 8.68,-3.34 z m -78.75,14.71 c 4.79,0 8.66,1.51 8.66,3.35 0,1.83 -3.87,3.31 -8.66,3.31 -4.78,0 -8.68,-1.48 -8.68,-3.31 0,-1.84 3.9,-3.35 8.68,-3.35 z m 28,0 c 4.79,0 8.66,1.51 8.66,3.35 0,1.83 -3.87,3.31 -8.66,3.31 -4.78,0 -8.68,-1.48 -8.68,-3.31 0,-1.84 3.9,-3.35 8.68,-3.35 z m 60,0 c 4.79,0 8.66,1.51 8.66,3.35 0,1.83 -3.87,3.31 -8.66,3.31 -4.78,0 -8.68,-1.48 -8.68,-3.31 0,-1.84 3.9,-3.35 8.68,-3.35 z m 26,0 c 4.79,0 8.66,1.51 8.66,3.35 0,1.83 -3.87,3.31 -8.66,3.31 -4.78,0 -8.68,-1.48 -8.68,-3.31 0,-1.84 3.9,-3.35 8.68,-3.35 z m -56,0.13 c 4.79,0 8.66,1.48 8.66,3.31 0,1.84 -3.87,3.31 -8.66,3.31 -4.78,0 -8.68,-1.47 -8.68,-3.31 0,-1.83 3.9,-3.31 8.68,-3.31 z m 20.35,12.06 c 4.78,0 8.65,1.51 8.65,3.35 0,1.83 -3.87,3.31 -8.65,3.31 -4.79,0 -8.66,-1.48 -8.66,-3.31 0,-1.84 3.87,-3.35 8.66,-3.35 z m -39.69,0.41 c 4.78,0 8.66,1.51 8.66,3.34 0,1.84 -3.88,3.31 -8.66,3.31 -4.78,0 -8.69,-1.47 -8.69,-3.31 0,-1.83 3.91,-3.34 8.69,-3.34 z m 69.72,2.03 c 4.78,0 8.65,1.48 8.65,3.31 0,1.84 -3.87,3.35 -8.65,3.35 -4.78,0 -8.69,-1.51 -8.69,-3.35 0,-1.83 3.91,-3.31 8.69,-3.31 z m -104.6,0.41 c 4.79,0 8.66,1.47 8.66,3.31 0,1.83 -3.87,3.31 -8.66,3.31 -4.78,0 -8.65,-1.48 -8.65,-3.31 0,-1.84 3.87,-3.31 8.65,-3.31 z m 54.22,5.62 c 4.79,0 8.66,1.51 8.66,3.34 0,1.84 -3.87,3.32 -8.66,3.32 -4.78,0 -8.68,-1.48 -8.68,-3.32 0,-1.83 3.9,-3.34 8.68,-3.34 z m 38.47,6.84 c 4.78,0 8.66,1.51 8.66,3.35 0,1.83 -3.88,3.31 -8.66,3.31 -4.78,0 -8.65,-1.48 -8.65,-3.31 0,-1.84 3.87,-3.35 8.65,-3.35 z m -78.78,0.41 c 4.78,0 8.66,1.51 8.66,3.34 0,1.84 -3.88,3.32 -8.66,3.32 -4.78,0 -8.66,-1.48 -8.66,-3.32 0,-1.83 3.88,-3.34 8.66,-3.34 z m 62.47,8.28 c 4.78,0 8.66,1.48 8.66,3.31 0,1.84 -3.88,3.32 -8.66,3.32 -4.78,0 -8.66,-1.48 -8.66,-3.32 0,-1.83 3.88,-3.31 8.66,-3.31 z m -43.31,0.41 c 4.78,0 8.65,1.48 8.65,3.31 0,1.84 -3.87,3.31 -8.65,3.31 -4.79,0 -8.69,-1.47 -8.69,-3.31 0,-1.83 3.9,-3.31 8.69,-3.31 z m 21.15,3.4 c 4.79,0 8.66,1.51 8.66,3.35 0,1.83 -3.87,3.31 -8.66,3.31 -4.78,0 -8.68,-1.48 -8.68,-3.31 0,-1.84 3.9,-3.35 8.68,-3.35 z"
                 id="path4161"
                 style="stroke-width:0.3704" /><path
                 transform="translate(107.73,241.82)"
                 d="m -382.97,186.16 v 0.37 c -28.66,1.46 -57.78,0.67 -69.69,4.75 -11.41,3.92 -9.31,19.04 -12.78,38.88 -6.68,38.18 -13.78,46.09 -1.81,88.65 2.13,7.58 4.6,21.83 12.38,35.25 7.77,13.42 20.86,26.01 32.25,32.75 0,0 6.94,-10.34 42.75,-11.03 35.82,0.69 42.75,11.03 42.75,11.03 11.38,-6.74 24.47,-19.33 32.25,-32.75 7.77,-13.42 10.24,-27.67 12.37,-35.25 11.97,-42.56 4.87,-50.47 -1.81,-88.65 -3.47,-19.84 -1.37,-34.96 -12.78,-38.88 -11.91,-4.08 -41.03,-3.29 -69.69,-4.75 v -0.37 c -1.03,0.06 -2.06,0.13 -3.09,0.18 -1.04,-0.05 -2.07,-0.12 -3.1,-0.18 z m -43.53,18.37 c 7.77,-0.2 15.57,2.05 21.66,6.97 19.44,16.25 21.78,48.54 5.28,67.66 -10.17,13.07 -31.31,15.84 -44.13,5.09 -19.83,-13.74 -25.76,-44.35 -11.28,-63.97 5.82,-9.96 17.12,-15.46 28.47,-15.75 z m 91.81,0 c 0.49,-0.01 0.95,-0.01 1.44,0 11.35,0.29 22.65,5.79 28.47,15.75 14.48,19.62 8.55,50.23 -11.28,63.97 -12.82,10.75 -33.96,7.98 -44.13,-5.09 -16.5,-19.12 -14.16,-51.41 5.28,-67.66 5.71,-4.61 12.94,-6.87 20.22,-6.97 z"
                 id="path4163"
                 style="stroke-width:0.3704" /><path
                 d="m -317.55,452.32 c -0.61,0 -1.23,0.02 -1.85,0.06 -20.25,0.4 -33.12,23.21 -29.4,41.6 2.35,17.39 17.71,35.25 36.4,32.43 16.81,-2.98 26.43,-21.43 25.56,-37.5 -0.08,-17.24 -11.87,-36.67 -30.71,-36.59 z m 0.59,3.97 c 12.71,0.06 21.89,13.06 23.97,25.34 3.28,15.49 -3.7,35.69 -19.78,39.53 -15.36,2.57 -27.88,-12.75 -30.32,-27.46 -3.55,-16.53 7.44,-37.41 24.88,-37.38 0.42,-0.03 0.84,-0.03 1.25,-0.03 z"
                 id="path4165"
                 style="stroke-width:0.3704" /><path
                 d="m -317.91,462.31 c -13.76,0.46 -21.64,16.5 -19.62,28.85 1.54,11.8 10.69,25.69 23.94,24 14.65,-5.23 18.39,-24.49 13.28,-37.85 -2.75,-7.45 -8.91,-15.47 -17.6,-15 z"
                 id="path4167"
                 style="stroke-width:0.3704" /><path
                 d="m -226.73,452.32 c 0.61,0 1.22,0.02 1.84,0.06 20.26,0.4 33.13,23.21 29.41,41.6 -2.35,17.39 -17.71,35.25 -36.41,32.43 -16.8,-2.98 -26.42,-21.43 -25.56,-37.5 0.08,-17.24 11.88,-36.67 30.72,-36.59 z m -0.59,3.97 c -12.71,0.06 -21.89,13.06 -23.97,25.34 -3.29,15.49 3.69,35.69 19.78,39.53 15.36,2.57 27.87,-12.75 30.31,-27.46 3.56,-16.53 -7.44,-37.41 -24.87,-37.38 -0.42,-0.03 -0.84,-0.03 -1.25,-0.03 z"
                 id="path4169"
                 style="stroke-width:0.3704" /><path
                 d="m -226.38,462.31 c 13.76,0.46 21.64,16.5 19.63,28.85 -1.54,11.8 -10.69,25.69 -23.94,24 -14.65,-5.23 -18.4,-24.49 -13.28,-37.85 2.74,-7.45 8.9,-15.47 17.59,-15 z"
                 id="path4171"
                 style="stroke-width:0.3704" /><path
                 d="m -275.09,641.23 c -46.27,0.16 -64.02,23.42 -70.06,43.09 18.48,-29.18 49.98,-36.01 72.85,-36.34 0.1,0 0.2,-0.01 0.31,0 22.86,0.33 54.36,7.16 72.84,36.34 -6.12,-19.93 -25.93,-43.54 -74,-43.06 -0.64,-0.01 -1.3,-0.04 -1.94,-0.03 z"
                 id="path4173"
                 style="stroke-width:0.3704" /><path
                 d="m -269.74,623.79 c -1.7,0.01 -3.47,0.05 -5.25,0.12 -9.28,-0.04 -17.29,0.8 -24.22,2.38 -0.38,0.05 -0.74,0.1 -1.13,0.16 l -0.03,0.09 c -21.15,5.16 -31.9,17.7 -37.22,35.09 10.85,-10.27 22.67,-16.61 34.29,-20.31 l -0.04,0.16 c 6.23,-1.97 17.48,-4.56 31.04,-4.69 0.1,0 0.2,0 0.31,0 13.55,0.13 24.8,2.72 31.03,4.69 l -0.03,-0.16 c 11.62,3.7 23.42,10.03 34.28,20.31 -7.15,-23.38 -24.12,-38.1 -63.03,-37.84 z"
                 id="path4175"
                 style="stroke-width:0.3704" /></g></g></g><g
           id="g16344"
           transform="matrix(0.72738542,0,0,0.72763832,1516.9498,461.36158)"
           style="stroke-width:0.363683"><path
             fill="#ffed00"
             d="m 356.399,32.241 c -19.596,-33.938 -51.648,-33.938 -71.239,0 L 14.87,500.5 c -19.588,33.938 -3.563,61.706 35.62,61.706 l 541.005,0.005 c 39.181,0 55.212,-27.773 35.627,-61.711 L 356.399,32.241"
             id="path16318"
             style="stroke-width:0.13223" /><path
             fill="none"
             stroke="#000000"
             stroke-width="0.914007"
             d="m 356.399,32.241 c -19.596,-33.938 -51.648,-33.938 -71.239,0 L 14.87,500.5 c -19.588,33.938 -3.563,61.706 35.62,61.706 l 541.005,0.005 c 39.181,0 55.212,-27.773 35.627,-61.711 z"
             id="path16320" /><path
             d="M 80.261,504.136 321.219,86.651 562.175,504.136 H 80.261 m 533.307,7.053 -272.76,-472.583 c -10.773,-18.667 -28.405,-18.667 -39.18,0 L 28.87,511.189 c -10.771,18.663 -1.956,33.938 19.594,33.938 H 593.98 c 21.546,0.002 30.363,-15.275 19.588,-33.938 z"
             id="path16322"
             style="stroke-width:0.363683" /><path
             d="m 321.219,380.532 c 12.777,0 23.13,-10.357 23.13,-23.135 0,-12.778 -10.353,-23.146 -23.13,-23.146 -12.771,0 -23.135,10.366 -23.135,23.146 0,12.778 10.363,23.135 23.135,23.135"
             id="path16324"
             style="stroke-width:0.363683" /><path
             d="m 216.513,357.398 c 0,-38.788 21.077,-72.653 52.403,-90.751 l 36.513,63.302 c -9.483,5.469 -15.865,15.713 -15.865,27.449 h -73.051"
             id="path16326"
             style="stroke-width:0.363683" /><path
             d="m 426.043,357.393 c 0,-38.787 -21.078,-72.652 -52.405,-90.757 l -36.51,63.309 c 9.482,5.469 15.869,15.713 15.869,27.448 h 73.046"
             id="path16328"
             style="stroke-width:0.363683" /><path
             d="m 373.619,448.08 c -33.58,19.397 -73.442,18.066 -104.774,-0.021 L 305.4,384.784 c 9.479,5.478 21.533,5.886 31.698,0.015 l 36.521,63.281"
             id="path16330"
             style="stroke-width:0.363683" /></g><g
           id="g17830"
           transform="matrix(0.72738022,0,0,0.72763308,996.17971,461.36307)"
           style="stroke-width:0.363685"><path
             fill="#ffed00"
             d="m 356.402,32.245 c -19.592,-33.946 -51.649,-33.946 -71.239,0 L 14.875,500.496 c -19.594,33.938 -3.563,61.712 35.611,61.712 l 541.014,0.005 c 39.181,0 55.208,-27.771 35.617,-61.717 L 356.402,32.245"
             id="path17798"
             style="stroke-width:0.132232" /><path
             fill="none"
             stroke="#000000"
             stroke-width="0.914014"
             d="m 356.402,32.245 c -19.592,-33.946 -51.649,-33.946 -71.239,0 L 14.875,500.496 c -19.594,33.938 -3.563,61.712 35.611,61.712 l 541.014,0.005 c 39.181,0 55.208,-27.771 35.617,-61.717 z"
             id="path17800" /><path
             d="M 80.266,504.138 321.225,86.652 562.181,504.138 H 80.266 m 533.31,7.049 L 340.811,38.602 c -10.771,-18.663 -28.4,-18.663 -39.175,0 L 28.874,511.187 c -10.776,18.673 -1.961,33.938 19.588,33.938 h 545.522 c 21.545,10e-4 30.364,-15.266 19.592,-33.938 z"
             id="path17802"
             style="stroke-width:0.363685" /><path
             d="m 282.104,319.185 c 18.093,-15.651 44.786,-18.979 66.668,-6.347 3.221,1.865 6.186,3.995 8.903,6.347 4.942,-4.284 9.149,-9.391 12.409,-15.104 -3.534,-3.021 -7.373,-5.771 -11.546,-8.176 -29.128,-16.822 -64.642,-12.512 -88.846,8.153 3.267,5.732 7.474,10.843 12.412,15.127"
             id="path17804"
             style="stroke-width:0.363685" /><path
             d="m 300.963,417.446 c -22.59,-7.84 -38.816,-29.305 -38.816,-54.578 0,-3.723 0.363,-7.357 1.041,-10.888 -6.18,-2.142 -12.704,-3.229 -19.286,-3.195 -0.844,4.568 -1.306,9.271 -1.306,14.083 0,33.647 21.495,62.262 51.491,72.894 3.324,-5.691 5.644,-11.89 6.876,-18.316"
             id="path17806"
             style="stroke-width:0.363685" /><path
             d="m 376.616,351.981 c 4.506,23.491 -5.97,48.285 -27.843,60.92 -3.222,1.86 -6.56,3.362 -9.944,4.546 1.236,6.427 3.554,12.615 6.872,18.306 4.379,-1.563 8.679,-3.517 12.841,-5.92 29.138,-16.821 43.157,-49.744 37.365,-81.047 -6.588,-0.036 -13.107,1.054 -19.291,3.195"
             id="path17808"
             style="stroke-width:0.363685" /><path
             d="m 443.241,446.441 c -19.018,22.808 -52.225,29.346 -78.811,13.984 -29.205,-16.861 -39.544,-53.833 -23.669,-83.324 l -7.256,-4.339 c -3.063,4.211 -8.011,6.955 -13.61,6.955 -5.571,0 -10.504,-2.719 -13.572,-6.896 l -7.294,4.278 c 15.874,29.491 5.536,66.463 -23.659,83.324 -26.596,15.358 -59.803,8.821 -78.817,-13.984 l -5.522,3.19 c 25.584,33.806 72.918,44.069 110.572,22.318 6.883,-3.972 12.969,-8.78 18.274,-14.189 5.308,5.419 11.422,10.215 18.313,14.189 37.658,21.751 84.987,11.485 110.582,-22.318 l -5.531,-3.188"
             id="path17810"
             style="stroke-width:0.363685" /><path
             d="m 423.482,324.177 c -6.877,-3.977 -14.076,-6.872 -21.41,-8.762 2.026,-7.3 3.122,-14.986 3.122,-22.931 0,-43.502 -32.557,-79.374 -74.616,-84.635 v 6.386 c 29.26,5.066 51.516,30.564 51.516,61.277 0,33.729 -26.835,61.169 -60.313,62.166 v 8.447 c 8.414,0.941 14.957,8.075 14.957,16.738 0,2.354 -0.481,4.595 -1.354,6.632 l 7.266,4.334 c 17.604,-28.499 54.774,-38.026 83.978,-21.166 26.586,15.358 37.537,47.389 27.297,75.27 l 5.522,3.19 c 16.475,-39.064 1.694,-85.2 -35.965,-106.946"
             id="path17812"
             style="stroke-width:0.363685" /><path
             d="m 303.054,362.867 c 0,-8.663 6.544,-15.796 14.957,-16.738 v -8.447 c -33.477,-0.997 -60.313,-28.437 -60.313,-62.166 0,-30.713 22.267,-56.211 51.517,-61.277 v -6.386 c -42.063,5.261 -74.615,41.134 -74.615,84.635 0,7.942 1.094,15.631 3.122,22.931 -7.333,1.89 -14.529,4.785 -21.412,8.762 -37.662,21.745 -52.438,67.882 -35.96,106.949 l 5.521,-3.19 c -10.238,-27.881 0.712,-59.908 27.297,-75.27 29.201,-16.86 66.375,-7.333 83.978,21.166 l 7.29,-4.28 c -0.885,-2.055 -1.382,-4.308 -1.382,-6.689"
             id="path17814"
             style="stroke-width:0.363685" /></g><g
           transform="matrix(0.70973637,0,0,0.70973637,-12.503528,292.9236)"
           id="g20017"
           style="stroke-width:0.370215"><circle
             cx="396"
             cy="529"
             r="285"
             style="fill:#ffffff;stroke:#000000;stroke-width:0.370215"
             id="circle20012" /><circle
             cx="396"
             cy="529"
             r="281"
             style="fill:#004488;stroke:none;stroke-width:0.370215"
             id="circle20014" /><path
             d="m 355.07,307.55 -66.34,49.5 -0.5,142.16 34.97,0.38 -0.41,-121.72 12.09,-8.35 14.13,124.69 -43.81,255.91 h 45.12 l 43.81,-197.69 0.63,-2.16 0.59,2.16 43.85,197.69 h 45.12 l -43.84,-255.91 14.12,-124.69 12.1,8.35 -0.38,121.72 34.94,-0.38 -0.5,-142.16 -66.31,-49.5 c -7.85,4.25 -21.11,9.02 -36.54,8.63 l -0.25,213.12 c -0.74,4.77 -1.65,6.83 -2.9,7.69 -0.01,0 -0.03,0.01 -0.03,0 -1.26,-0.86 -2.17,-2.92 -2.91,-7.69 l -0.25,-213.12 c -15.42,0.39 -28.66,-4.38 -36.5,-8.63 z m 56.91,66.66 h 29.4 v 10.09 h -29.4 z"
             id="path1932"
             style="fill:#ffffff;fill-rule:evenodd;stroke:none;stroke-width:0.370215" /></g></g></g></g></svg>
